<svg width="51" height="25" viewBox="0 0 51 25" fill="none" xmlns="http://www.w3.org/2000/svg">
<path d="M11.1719 21.1094V12.4062C11.1719 11.7396 11.0365 11.1615 10.7656 10.6719C10.5052 10.1719 10.1094 9.78646 9.57812 9.51562C9.04688 9.24479 8.39062 9.10938 7.60938 9.10938C6.88021 9.10938 6.23958 9.23438 5.6875 9.48438C5.14583 9.73438 4.71875 10.0625 4.40625 10.4688C4.10417 10.875 3.95312 11.3125 3.95312 11.7812H1.0625C1.0625 11.1771 1.21875 10.5781 1.53125 9.98438C1.84375 9.39062 2.29167 8.85417 2.875 8.375C3.46875 7.88542 4.17708 7.5 5 7.21875C5.83333 6.92708 6.76042 6.78125 7.78125 6.78125C9.01042 6.78125 10.0938 6.98958 11.0312 7.40625C11.9792 7.82292 12.7188 8.45312 13.25 9.29688C13.7917 10.1302 14.0625 11.1771 14.0625 12.4375V20.3125C14.0625 20.875 14.1094 21.474 14.2031 22.1094C14.3073 22.7448 14.4583 23.2917 14.6562 23.75V24H11.6406C11.4948 23.6667 11.3802 23.224 11.2969 22.6719C11.2135 22.1094 11.1719 21.5885 11.1719 21.1094ZM11.6719 13.75L11.7031 15.7812H8.78125C7.95833 15.7812 7.22396 15.849 6.57812 15.9844C5.93229 16.1094 5.39062 16.3021 4.95312 16.5625C4.51562 16.8229 4.18229 17.151 3.95312 17.5469C3.72396 17.9323 3.60938 18.3854 3.60938 18.9062C3.60938 19.4375 3.72917 19.9219 3.96875 20.3594C4.20833 20.7969 4.56771 21.1458 5.04688 21.4062C5.53646 21.6562 6.13542 21.7812 6.84375 21.7812C7.72917 21.7812 8.51042 21.5938 9.1875 21.2188C9.86458 20.8438 10.401 20.3854 10.7969 19.8438C11.2031 19.3021 11.4219 18.776 11.4531 18.2656L12.6875 19.6562C12.6146 20.0938 12.4167 20.5781 12.0938 21.1094C11.7708 21.6406 11.3385 22.151 10.7969 22.6406C10.2656 23.1198 9.63021 23.5208 8.89062 23.8438C8.16146 24.1562 7.33854 24.3125 6.42188 24.3125C5.27604 24.3125 4.27083 24.0885 3.40625 23.6406C2.55208 23.1927 1.88542 22.5938 1.40625 21.8438C0.9375 21.0833 0.703125 20.2344 0.703125 19.2969C0.703125 18.3906 0.880208 17.5938 1.23438 16.9062C1.58854 16.2083 2.09896 15.6302 2.76562 15.1719C3.43229 14.7031 4.23438 14.349 5.17188 14.1094C6.10938 13.8698 7.15625 13.75 8.3125 13.75H11.6719ZM29.2656 20.7188V0H32.1719V24H29.5156L29.2656 20.7188ZM17.8906 15.7344V15.4062C17.8906 14.1146 18.0469 12.9427 18.3594 11.8906C18.6823 10.8281 19.1354 9.91667 19.7188 9.15625C20.3125 8.39583 21.0156 7.8125 21.8281 7.40625C22.651 6.98958 23.5677 6.78125 24.5781 6.78125C25.6406 6.78125 26.5677 6.96875 27.3594 7.34375C28.1615 7.70833 28.8385 8.24479 29.3906 8.95312C29.9531 9.65104 30.3958 10.4948 30.7188 11.4844C31.0417 12.474 31.2656 13.5938 31.3906 14.8438V16.2812C31.276 17.5208 31.0521 18.6354 30.7188 19.625C30.3958 20.6146 29.9531 21.4583 29.3906 22.1562C28.8385 22.8542 28.1615 23.3906 27.3594 23.7656C26.5573 24.1302 25.6198 24.3125 24.5469 24.3125C23.5573 24.3125 22.651 24.099 21.8281 23.6719C21.0156 23.2448 20.3125 22.6458 19.7188 21.875C19.1354 21.1042 18.6823 20.1979 18.3594 19.1562C18.0469 18.1042 17.8906 16.9635 17.8906 15.7344ZM20.7969 15.4062V15.7344C20.7969 16.5781 20.8802 17.3698 21.0469 18.1094C21.224 18.849 21.4948 19.5 21.8594 20.0625C22.224 20.625 22.6875 21.0677 23.25 21.3906C23.8125 21.7031 24.4844 21.8594 25.2656 21.8594C26.224 21.8594 27.0104 21.6562 27.625 21.25C28.25 20.8438 28.75 20.3073 29.125 19.6406C29.5 18.974 29.7917 18.25 30 17.4688V13.7031C29.875 13.1302 29.6927 12.5781 29.4531 12.0469C29.224 11.5052 28.9219 11.026 28.5469 10.6094C28.1823 10.1823 27.7292 9.84375 27.1875 9.59375C26.6562 9.34375 26.026 9.21875 25.2969 9.21875C24.5052 9.21875 23.8229 9.38542 23.25 9.71875C22.6875 10.0417 22.224 10.4896 21.8594 11.0625C21.4948 11.625 21.224 12.2812 21.0469 13.0312C20.8802 13.7708 20.7969 14.5625 20.7969 15.4062ZM47.3281 20.7188V0H50.2344V24H47.5781L47.3281 20.7188ZM35.9531 15.7344V15.4062C35.9531 14.1146 36.1094 12.9427 36.4219 11.8906C36.7448 10.8281 37.1979 9.91667 37.7812 9.15625C38.375 8.39583 39.0781 7.8125 39.8906 7.40625C40.7135 6.98958 41.6302 6.78125 42.6406 6.78125C43.7031 6.78125 44.6302 6.96875 45.4219 7.34375C46.224 7.70833 46.901 8.24479 47.4531 8.95312C48.0156 9.65104 48.4583 10.4948 48.7812 11.4844C49.1042 12.474 49.3281 13.5938 49.4531 14.8438V16.2812C49.3385 17.5208 49.1146 18.6354 48.7812 19.625C48.4583 20.6146 48.0156 21.4583 47.4531 22.1562C46.901 22.8542 46.224 23.3906 45.4219 23.7656C44.6198 24.1302 43.6823 24.3125 42.6094 24.3125C41.6198 24.3125 40.7135 24.099 39.8906 23.6719C39.0781 23.2448 38.375 22.6458 37.7812 21.875C37.1979 21.1042 36.7448 20.1979 36.4219 19.1562C36.1094 18.1042 35.9531 16.9635 35.9531 15.7344ZM38.8594 15.4062V15.7344C38.8594 16.5781 38.9427 17.3698 39.1094 18.1094C39.2865 18.849 39.5573 19.5 39.9219 20.0625C40.2865 20.625 40.75 21.0677 41.3125 21.3906C41.875 21.7031 42.5469 21.8594 43.3281 21.8594C44.2865 21.8594 45.0729 21.6562 45.6875 21.25C46.3125 20.8438 46.8125 20.3073 47.1875 19.6406C47.5625 18.974 47.8542 18.25 48.0625 17.4688V13.7031C47.9375 13.1302 47.7552 12.5781 47.5156 12.0469C47.2865 11.5052 46.9844 11.026 46.6094 10.6094C46.2448 10.1823 45.7917 9.84375 45.25 9.59375C44.7188 9.34375 44.0885 9.21875 43.3594 9.21875C42.5677 9.21875 41.8854 9.38542 41.3125 9.71875C40.75 10.0417 40.2865 10.4896 39.9219 11.0625C39.5573 11.625 39.2865 12.2812 39.1094 13.0312C38.9427 13.7708 38.8594 14.5625 38.8594 15.4062Z" fill="black"/>
</svg>
