<svg width="144" height="160" viewBox="0 0 144 160" fill="none" xmlns="http://www.w3.org/2000/svg">
<rect width="144" height="160" fill="#EF7015"/>
<path d="M30.8281 129.625H32.3281V137.32C32.3281 138.174 32.138 138.885 31.7578 139.453C31.3776 140.021 30.8724 140.448 30.2422 140.734C29.6172 141.016 28.9375 141.156 28.2031 141.156C27.4323 141.156 26.7344 141.016 26.1094 140.734C25.4896 140.448 24.9974 140.021 24.6328 139.453C24.2734 138.885 24.0938 138.174 24.0938 137.32V129.625H25.5859V137.32C25.5859 137.914 25.6953 138.404 25.9141 138.789C26.1328 139.174 26.4375 139.461 26.8281 139.648C27.224 139.836 27.6823 139.93 28.2031 139.93C28.7292 139.93 29.1875 139.836 29.5781 139.648C29.974 139.461 30.2812 139.174 30.5 138.789C30.7188 138.404 30.8281 137.914 30.8281 137.32V129.625ZM35.9219 134.172V144.25H34.4688V132.547H35.7969L35.9219 134.172ZM41.6172 136.703V136.867C41.6172 137.482 41.5443 138.052 41.3984 138.578C41.2526 139.099 41.0391 139.552 40.7578 139.938C40.4818 140.323 40.1406 140.622 39.7344 140.836C39.3281 141.049 38.862 141.156 38.3359 141.156C37.7995 141.156 37.3255 141.068 36.9141 140.891C36.5026 140.714 36.1536 140.456 35.8672 140.117C35.5807 139.779 35.3516 139.372 35.1797 138.898C35.013 138.424 34.8984 137.891 34.8359 137.297V136.422C34.8984 135.797 35.0156 135.237 35.1875 134.742C35.3594 134.247 35.5859 133.826 35.8672 133.477C36.1536 133.122 36.5 132.854 36.9062 132.672C37.3125 132.484 37.7812 132.391 38.3125 132.391C38.8438 132.391 39.3151 132.495 39.7266 132.703C40.138 132.906 40.4844 133.198 40.7656 133.578C41.0469 133.958 41.2578 134.414 41.3984 134.945C41.5443 135.471 41.6172 136.057 41.6172 136.703ZM40.1641 136.867V136.703C40.1641 136.281 40.1198 135.885 40.0312 135.516C39.9427 135.141 39.8047 134.812 39.6172 134.531C39.4349 134.245 39.2005 134.021 38.9141 133.859C38.6276 133.693 38.2865 133.609 37.8906 133.609C37.526 133.609 37.2083 133.672 36.9375 133.797C36.6719 133.922 36.4453 134.091 36.2578 134.305C36.0703 134.513 35.9167 134.753 35.7969 135.023C35.6823 135.289 35.5964 135.565 35.5391 135.852V137.875C35.6432 138.24 35.7891 138.583 35.9766 138.906C36.1641 139.224 36.4141 139.482 36.7266 139.68C37.0391 139.872 37.4323 139.969 37.9062 139.969C38.2969 139.969 38.6328 139.888 38.9141 139.727C39.2005 139.56 39.4349 139.333 39.6172 139.047C39.8047 138.76 39.9427 138.432 40.0312 138.062C40.1198 137.688 40.1641 137.289 40.1641 136.867ZM45.0312 129V141H43.5781V129H45.0312ZM46.9688 136.867V136.688C46.9688 136.078 47.0573 135.513 47.2344 134.992C47.4115 134.466 47.6667 134.01 48 133.625C48.3333 133.234 48.737 132.932 49.2109 132.719C49.6849 132.5 50.2161 132.391 50.8047 132.391C51.3984 132.391 51.9323 132.5 52.4062 132.719C52.8854 132.932 53.2917 133.234 53.625 133.625C53.9635 134.01 54.2214 134.466 54.3984 134.992C54.5755 135.513 54.6641 136.078 54.6641 136.688V136.867C54.6641 137.477 54.5755 138.042 54.3984 138.562C54.2214 139.083 53.9635 139.539 53.625 139.93C53.2917 140.315 52.888 140.617 52.4141 140.836C51.9453 141.049 51.4141 141.156 50.8203 141.156C50.2266 141.156 49.6927 141.049 49.2188 140.836C48.7448 140.617 48.3385 140.315 48 139.93C47.6667 139.539 47.4115 139.083 47.2344 138.562C47.0573 138.042 46.9688 137.477 46.9688 136.867ZM48.4141 136.688V136.867C48.4141 137.289 48.4635 137.688 48.5625 138.062C48.6615 138.432 48.8099 138.76 49.0078 139.047C49.2109 139.333 49.4635 139.56 49.7656 139.727C50.0677 139.888 50.4193 139.969 50.8203 139.969C51.2161 139.969 51.5625 139.888 51.8594 139.727C52.1615 139.56 52.4115 139.333 52.6094 139.047C52.8073 138.76 52.9557 138.432 53.0547 138.062C53.1589 137.688 53.2109 137.289 53.2109 136.867V136.688C53.2109 136.271 53.1589 135.878 53.0547 135.508C52.9557 135.133 52.8047 134.802 52.6016 134.516C52.4036 134.224 52.1536 133.995 51.8516 133.828C51.5547 133.661 51.2057 133.578 50.8047 133.578C50.4089 133.578 50.0599 133.661 49.7578 133.828C49.4609 133.995 49.2109 134.224 49.0078 134.516C48.8099 134.802 48.6615 135.133 48.5625 135.508C48.4635 135.878 48.4141 136.271 48.4141 136.688ZM61.4609 139.555V135.203C61.4609 134.87 61.3932 134.581 61.2578 134.336C61.1276 134.086 60.9297 133.893 60.6641 133.758C60.3984 133.622 60.0703 133.555 59.6797 133.555C59.3151 133.555 58.9948 133.617 58.7188 133.742C58.4479 133.867 58.2344 134.031 58.0781 134.234C57.9271 134.438 57.8516 134.656 57.8516 134.891H56.4062C56.4062 134.589 56.4844 134.289 56.6406 133.992C56.7969 133.695 57.0208 133.427 57.3125 133.188C57.6094 132.943 57.9635 132.75 58.375 132.609C58.7917 132.464 59.2552 132.391 59.7656 132.391C60.3802 132.391 60.9219 132.495 61.3906 132.703C61.8646 132.911 62.2344 133.227 62.5 133.648C62.7708 134.065 62.9062 134.589 62.9062 135.219V139.156C62.9062 139.438 62.9297 139.737 62.9766 140.055C63.0286 140.372 63.1042 140.646 63.2031 140.875V141H61.6953C61.6224 140.833 61.5651 140.612 61.5234 140.336C61.4818 140.055 61.4609 139.794 61.4609 139.555ZM61.7109 135.875L61.7266 136.891H60.2656C59.8542 136.891 59.487 136.924 59.1641 136.992C58.8411 137.055 58.5703 137.151 58.3516 137.281C58.1328 137.411 57.9661 137.576 57.8516 137.773C57.737 137.966 57.6797 138.193 57.6797 138.453C57.6797 138.719 57.7396 138.961 57.8594 139.18C57.9792 139.398 58.1589 139.573 58.3984 139.703C58.6432 139.828 58.9427 139.891 59.2969 139.891C59.7396 139.891 60.1302 139.797 60.4688 139.609C60.8073 139.422 61.0755 139.193 61.2734 138.922C61.4766 138.651 61.5859 138.388 61.6016 138.133L62.2188 138.828C62.1823 139.047 62.0833 139.289 61.9219 139.555C61.7604 139.82 61.5443 140.076 61.2734 140.32C61.0078 140.56 60.6901 140.76 60.3203 140.922C59.9557 141.078 59.5443 141.156 59.0859 141.156C58.513 141.156 58.0104 141.044 57.5781 140.82C57.151 140.596 56.8177 140.297 56.5781 139.922C56.3438 139.542 56.2266 139.117 56.2266 138.648C56.2266 138.195 56.3151 137.797 56.4922 137.453C56.6693 137.104 56.9245 136.815 57.2578 136.586C57.5911 136.352 57.9922 136.174 58.4609 136.055C58.9297 135.935 59.4531 135.875 60.0312 135.875H61.7109ZM70.5078 139.359V129H71.9609V141H70.6328L70.5078 139.359ZM64.8203 136.867V136.703C64.8203 136.057 64.8984 135.471 65.0547 134.945C65.2161 134.414 65.4427 133.958 65.7344 133.578C66.0312 133.198 66.3828 132.906 66.7891 132.703C67.2005 132.495 67.6589 132.391 68.1641 132.391C68.6953 132.391 69.1589 132.484 69.5547 132.672C69.9557 132.854 70.2943 133.122 70.5703 133.477C70.8516 133.826 71.0729 134.247 71.2344 134.742C71.3958 135.237 71.5078 135.797 71.5703 136.422V137.141C71.513 137.76 71.401 138.318 71.2344 138.812C71.0729 139.307 70.8516 139.729 70.5703 140.078C70.2943 140.427 69.9557 140.695 69.5547 140.883C69.1536 141.065 68.6849 141.156 68.1484 141.156C67.6536 141.156 67.2005 141.049 66.7891 140.836C66.3828 140.622 66.0312 140.323 65.7344 139.938C65.4427 139.552 65.2161 139.099 65.0547 138.578C64.8984 138.052 64.8203 137.482 64.8203 136.867ZM66.2734 136.703V136.867C66.2734 137.289 66.3151 137.685 66.3984 138.055C66.487 138.424 66.6224 138.75 66.8047 139.031C66.987 139.312 67.2188 139.534 67.5 139.695C67.7812 139.852 68.1172 139.93 68.5078 139.93C68.987 139.93 69.3802 139.828 69.6875 139.625C70 139.422 70.25 139.154 70.4375 138.82C70.625 138.487 70.7708 138.125 70.875 137.734V135.852C70.8125 135.565 70.7214 135.289 70.6016 135.023C70.487 134.753 70.3359 134.513 70.1484 134.305C69.9661 134.091 69.7396 133.922 69.4688 133.797C69.2031 133.672 68.888 133.609 68.5234 133.609C68.1276 133.609 67.7865 133.693 67.5 133.859C67.2188 134.021 66.987 134.245 66.8047 134.531C66.6224 134.812 66.487 135.141 66.3984 135.516C66.3151 135.885 66.2734 136.281 66.2734 136.703ZM82.5938 136.539H79.5547V135.312H82.5938C83.1823 135.312 83.6589 135.219 84.0234 135.031C84.388 134.844 84.6536 134.583 84.8203 134.25C84.9922 133.917 85.0781 133.536 85.0781 133.109C85.0781 132.719 84.9922 132.352 84.8203 132.008C84.6536 131.664 84.388 131.388 84.0234 131.18C83.6589 130.966 83.1823 130.859 82.5938 130.859H79.9062V141H78.3984V129.625H82.5938C83.4531 129.625 84.1797 129.773 84.7734 130.07C85.3672 130.367 85.8177 130.779 86.125 131.305C86.4323 131.826 86.5859 132.422 86.5859 133.094C86.5859 133.823 86.4323 134.445 86.125 134.961C85.8177 135.477 85.3672 135.87 84.7734 136.141C84.1797 136.406 83.4531 136.539 82.5938 136.539ZM89.7188 129V141H88.2734V129H89.7188ZM89.375 136.453L88.7734 136.43C88.7786 135.852 88.8646 135.318 89.0312 134.828C89.1979 134.333 89.4323 133.904 89.7344 133.539C90.0365 133.174 90.3958 132.893 90.8125 132.695C91.2344 132.492 91.7005 132.391 92.2109 132.391C92.6276 132.391 93.0026 132.448 93.3359 132.562C93.6693 132.672 93.9531 132.849 94.1875 133.094C94.4271 133.339 94.6094 133.656 94.7344 134.047C94.8594 134.432 94.9219 134.904 94.9219 135.461V141H93.4688V135.445C93.4688 135.003 93.4036 134.648 93.2734 134.383C93.1432 134.112 92.9531 133.917 92.7031 133.797C92.4531 133.672 92.1458 133.609 91.7812 133.609C91.4219 133.609 91.0938 133.685 90.7969 133.836C90.5052 133.987 90.2526 134.195 90.0391 134.461C89.8307 134.727 89.6667 135.031 89.5469 135.375C89.4323 135.714 89.375 136.073 89.375 136.453ZM96.7031 136.867V136.688C96.7031 136.078 96.7917 135.513 96.9688 134.992C97.1458 134.466 97.401 134.01 97.7344 133.625C98.0677 133.234 98.4714 132.932 98.9453 132.719C99.4193 132.5 99.9505 132.391 100.539 132.391C101.133 132.391 101.667 132.5 102.141 132.719C102.62 132.932 103.026 133.234 103.359 133.625C103.698 134.01 103.956 134.466 104.133 134.992C104.31 135.513 104.398 136.078 104.398 136.688V136.867C104.398 137.477 104.31 138.042 104.133 138.562C103.956 139.083 103.698 139.539 103.359 139.93C103.026 140.315 102.622 140.617 102.148 140.836C101.68 141.049 101.148 141.156 100.555 141.156C99.9609 141.156 99.4271 141.049 98.9531 140.836C98.4792 140.617 98.0729 140.315 97.7344 139.93C97.401 139.539 97.1458 139.083 96.9688 138.562C96.7917 138.042 96.7031 137.477 96.7031 136.867ZM98.1484 136.688V136.867C98.1484 137.289 98.1979 137.688 98.2969 138.062C98.3958 138.432 98.5443 138.76 98.7422 139.047C98.9453 139.333 99.1979 139.56 99.5 139.727C99.8021 139.888 100.154 139.969 100.555 139.969C100.951 139.969 101.297 139.888 101.594 139.727C101.896 139.56 102.146 139.333 102.344 139.047C102.542 138.76 102.69 138.432 102.789 138.062C102.893 137.688 102.945 137.289 102.945 136.867V136.688C102.945 136.271 102.893 135.878 102.789 135.508C102.69 135.133 102.539 134.802 102.336 134.516C102.138 134.224 101.888 133.995 101.586 133.828C101.289 133.661 100.94 133.578 100.539 133.578C100.143 133.578 99.7943 133.661 99.4922 133.828C99.1953 133.995 98.9453 134.224 98.7422 134.516C98.5443 134.802 98.3958 135.133 98.2969 135.508C98.1979 135.878 98.1484 136.271 98.1484 136.688ZM109.75 132.547V133.656H105.18V132.547H109.75ZM106.727 130.492H108.172V138.906C108.172 139.193 108.216 139.409 108.305 139.555C108.393 139.701 108.508 139.797 108.648 139.844C108.789 139.891 108.94 139.914 109.102 139.914C109.221 139.914 109.346 139.904 109.477 139.883C109.612 139.857 109.714 139.836 109.781 139.82L109.789 141C109.674 141.036 109.523 141.07 109.336 141.102C109.154 141.138 108.932 141.156 108.672 141.156C108.318 141.156 107.992 141.086 107.695 140.945C107.398 140.805 107.161 140.57 106.984 140.242C106.812 139.909 106.727 139.461 106.727 138.898V130.492ZM110.906 136.867V136.688C110.906 136.078 110.995 135.513 111.172 134.992C111.349 134.466 111.604 134.01 111.938 133.625C112.271 133.234 112.674 132.932 113.148 132.719C113.622 132.5 114.154 132.391 114.742 132.391C115.336 132.391 115.87 132.5 116.344 132.719C116.823 132.932 117.229 133.234 117.562 133.625C117.901 134.01 118.159 134.466 118.336 134.992C118.513 135.513 118.602 136.078 118.602 136.688V136.867C118.602 137.477 118.513 138.042 118.336 138.562C118.159 139.083 117.901 139.539 117.562 139.93C117.229 140.315 116.826 140.617 116.352 140.836C115.883 141.049 115.352 141.156 114.758 141.156C114.164 141.156 113.63 141.049 113.156 140.836C112.682 140.617 112.276 140.315 111.938 139.93C111.604 139.539 111.349 139.083 111.172 138.562C110.995 138.042 110.906 137.477 110.906 136.867ZM112.352 136.688V136.867C112.352 137.289 112.401 137.688 112.5 138.062C112.599 138.432 112.747 138.76 112.945 139.047C113.148 139.333 113.401 139.56 113.703 139.727C114.005 139.888 114.357 139.969 114.758 139.969C115.154 139.969 115.5 139.888 115.797 139.727C116.099 139.56 116.349 139.333 116.547 139.047C116.745 138.76 116.893 138.432 116.992 138.062C117.096 137.688 117.148 137.289 117.148 136.867V136.688C117.148 136.271 117.096 135.878 116.992 135.508C116.893 135.133 116.742 134.802 116.539 134.516C116.341 134.224 116.091 133.995 115.789 133.828C115.492 133.661 115.143 133.578 114.742 133.578C114.346 133.578 113.997 133.661 113.695 133.828C113.398 133.995 113.148 134.224 112.945 134.516C112.747 134.802 112.599 135.133 112.5 135.508C112.401 135.878 112.352 136.271 112.352 136.688Z" fill="black"/>
<path d="M71.5 80.5C66.7791 80.5 62.7378 78.8191 59.376 75.4573C56.0142 72.0955 54.3333 68.0542 54.3333 63.3333C54.3333 58.6125 56.0142 54.5712 59.376 51.2094C62.7378 47.8476 66.7791 46.1667 71.5 46.1667C76.2208 46.1667 80.2621 47.8476 83.6239 51.2094C86.9857 54.5712 88.6666 58.6125 88.6666 63.3333C88.6666 68.0542 86.9857 72.0955 83.6239 75.4573C80.2621 78.8191 76.2208 80.5 71.5 80.5ZM37.1666 114.833V102.817C37.1666 100.385 37.7932 98.1502 39.0464 96.1131C40.2995 94.076 41.9618 92.5195 44.0333 91.4438C48.468 89.2264 52.9743 87.5641 57.552 86.4568C62.1298 85.3496 66.7791 84.7945 71.5 84.7917C76.2208 84.7888 80.8701 85.3439 85.4479 86.4568C90.0257 87.5698 94.5319 89.2321 98.9666 91.4438C101.041 92.5167 102.705 94.0731 103.958 96.1131C105.211 98.1531 105.836 100.388 105.833 102.817V114.833H37.1666Z" fill="black"/>
</svg>
