<svg width="78" height="23" viewBox="0 0 78 23" fill="none" xmlns="http://www.w3.org/2000/svg">
<path d="M8.77273 22.3636C7.09091 22.3636 5.64015 21.9924 4.42045 21.25C3.20833 20.5 2.27273 19.4545 1.61364 18.1136C0.962121 16.7652 0.636364 15.197 0.636364 13.4091C0.636364 11.6212 0.962121 10.0455 1.61364 8.68182C2.27273 7.31061 3.18939 6.24242 4.36364 5.47727C5.54545 4.70455 6.92424 4.31818 8.5 4.31818C9.40909 4.31818 10.3068 4.4697 11.1932 4.77273C12.0795 5.07576 12.8864 5.56818 13.6136 6.25C14.3409 6.92424 14.9205 7.81818 15.3523 8.93182C15.7841 10.0455 16 11.4167 16 13.0455V14.1818H2.54545V11.8636H13.2727C13.2727 10.8788 13.0758 10 12.6818 9.22727C12.2955 8.45454 11.7424 7.8447 11.0227 7.39773C10.3106 6.95076 9.4697 6.72727 8.5 6.72727C7.43182 6.72727 6.50758 6.99242 5.72727 7.52273C4.95455 8.04545 4.35985 8.72727 3.94318 9.56818C3.52652 10.4091 3.31818 11.3106 3.31818 12.2727V13.8182C3.31818 15.1364 3.54545 16.2538 4 17.1705C4.46212 18.0795 5.10227 18.7727 5.92045 19.25C6.73864 19.7197 7.68939 19.9545 8.77273 19.9545C9.47727 19.9545 10.1136 19.8561 10.6818 19.6591C11.2576 19.4545 11.7538 19.1515 12.1705 18.75C12.5871 18.3409 12.9091 17.8333 13.1364 17.2273L15.7273 17.9545C15.4545 18.8333 14.9962 19.6061 14.3523 20.2727C13.7083 20.9318 12.9129 21.447 11.9659 21.8182C11.0189 22.1818 9.95455 22.3636 8.77273 22.3636ZM22.7614 11.5V22H20.0795V4.54545H22.6705V7.27273H22.8977C23.3068 6.38636 23.928 5.67424 24.7614 5.13636C25.5947 4.59091 26.6705 4.31818 27.9886 4.31818C29.1705 4.31818 30.2045 4.56061 31.0909 5.04545C31.9773 5.52273 32.6667 6.25 33.1591 7.22727C33.6515 8.19697 33.8977 9.42424 33.8977 10.9091V22H31.2159V11.0909C31.2159 9.7197 30.8598 8.65152 30.1477 7.88636C29.4356 7.11364 28.4583 6.72727 27.2159 6.72727C26.3598 6.72727 25.5947 6.91288 24.9205 7.28409C24.2538 7.6553 23.7273 8.19697 23.3409 8.90909C22.9545 9.62121 22.7614 10.4848 22.7614 11.5ZM46.3892 4.54545V6.81818H37.3438V4.54545H46.3892ZM39.9801 0.363636H42.6619V17C42.6619 17.7576 42.7718 18.3258 42.9915 18.7045C43.2188 19.0758 43.5066 19.3258 43.8551 19.4545C44.2112 19.5758 44.5862 19.6364 44.9801 19.6364C45.2756 19.6364 45.518 19.6212 45.7074 19.5909C45.8968 19.553 46.0483 19.5227 46.1619 19.5L46.7074 21.9091C46.5256 21.9773 46.2718 22.0455 45.946 22.1136C45.6203 22.1894 45.2074 22.2273 44.7074 22.2273C43.9498 22.2273 43.2074 22.0644 42.4801 21.7386C41.7604 21.4129 41.1619 20.9167 40.6847 20.25C40.215 19.5833 39.9801 18.7424 39.9801 17.7273V0.363636ZM57.554 22.3636C55.8722 22.3636 54.4214 21.9924 53.2017 21.25C51.9896 20.5 51.054 19.4545 50.3949 18.1136C49.7434 16.7652 49.4176 15.197 49.4176 13.4091C49.4176 11.6212 49.7434 10.0455 50.3949 8.68182C51.054 7.31061 51.9706 6.24242 53.1449 5.47727C54.3267 4.70455 55.7055 4.31818 57.2812 4.31818C58.1903 4.31818 59.0881 4.4697 59.9744 4.77273C60.8608 5.07576 61.6676 5.56818 62.3949 6.25C63.1222 6.92424 63.7017 7.81818 64.1335 8.93182C64.5653 10.0455 64.7812 11.4167 64.7812 13.0455V14.1818H51.3267V11.8636H62.054C62.054 10.8788 61.857 10 61.4631 9.22727C61.0767 8.45454 60.5237 7.8447 59.804 7.39773C59.0919 6.95076 58.2509 6.72727 57.2812 6.72727C56.2131 6.72727 55.2888 6.99242 54.5085 7.52273C53.7358 8.04545 53.1411 8.72727 52.7244 9.56818C52.3078 10.4091 52.0994 11.3106 52.0994 12.2727V13.8182C52.0994 15.1364 52.3267 16.2538 52.7812 17.1705C53.2434 18.0795 53.8835 18.7727 54.7017 19.25C55.5199 19.7197 56.4706 19.9545 57.554 19.9545C58.2585 19.9545 58.8949 19.8561 59.4631 19.6591C60.0388 19.4545 60.535 19.1515 60.9517 18.75C61.3684 18.3409 61.6903 17.8333 61.9176 17.2273L64.5085 17.9545C64.2358 18.8333 63.7775 19.6061 63.1335 20.2727C62.4896 20.9318 61.6941 21.447 60.7472 21.8182C59.8002 22.1818 58.7358 22.3636 57.554 22.3636ZM68.8608 22V4.54545H71.4517V7.18182H71.6335C71.9517 6.31818 72.5275 5.61742 73.3608 5.07954C74.1941 4.54167 75.1335 4.27273 76.179 4.27273C76.3759 4.27273 76.6222 4.27651 76.9176 4.28409C77.2131 4.29167 77.4366 4.30303 77.5881 4.31818V7.04545C77.4972 7.02273 77.2888 6.98864 76.9631 6.94318C76.6449 6.89015 76.3078 6.86364 75.9517 6.86364C75.1032 6.86364 74.3456 7.04167 73.679 7.39773C73.0199 7.74621 72.4972 8.23106 72.1108 8.85227C71.732 9.46591 71.5426 10.1667 71.5426 10.9545V22H68.8608Z" fill="black"/>
</svg>
