<svg width="69" height="31" viewBox="0 0 69 31" fill="none" xmlns="http://www.w3.org/2000/svg">
<path d="M5.94 22.368V16.5H0.9V13.584H5.94V7.716H8.82V13.584H14.04V16.5H8.82V22.368H5.94ZM28.856 30.288C28.04 30.288 27.32 30.06 26.696 29.604C26.072 29.124 25.58 28.524 25.22 27.804C24.86 27.06 24.68 26.28 24.68 25.464C24.68 24.168 24.896 23.076 25.328 22.188C25.76 21.3 26.348 20.556 27.092 19.956C27.86 19.332 28.736 18.792 29.72 18.336C30.728 17.88 31.784 17.436 32.888 17.004V15.528C32.888 14.688 32.84 13.992 32.744 13.44C32.648 12.888 32.444 12.48 32.132 12.216C31.844 11.928 31.4 11.784 30.8 11.784C30.272 11.784 29.84 11.904 29.504 12.144C29.192 12.384 28.964 12.732 28.82 13.188C28.676 13.62 28.604 14.136 28.604 14.736V15.78L24.788 15.636C24.836 13.332 25.364 11.64 26.372 10.56C27.38 9.456 28.94 8.904 31.052 8.904C33.116 8.904 34.58 9.468 35.444 10.596C36.308 11.724 36.74 13.356 36.74 15.492V24.996C36.74 25.644 36.752 26.268 36.776 26.868C36.824 27.468 36.872 28.032 36.92 28.56C36.992 29.064 37.052 29.544 37.1 30H33.572C33.5 29.616 33.404 29.136 33.284 28.56C33.188 27.96 33.116 27.42 33.068 26.94C32.828 27.756 32.36 28.524 31.664 29.244C30.992 29.94 30.056 30.288 28.856 30.288ZM30.368 26.976C30.752 26.976 31.112 26.868 31.448 26.652C31.784 26.436 32.084 26.196 32.348 25.932C32.612 25.644 32.792 25.416 32.888 25.248V19.344C32.288 19.68 31.724 20.016 31.196 20.352C30.668 20.688 30.2 21.048 29.792 21.432C29.408 21.792 29.096 22.212 28.856 22.692C28.64 23.148 28.532 23.676 28.532 24.276C28.532 25.116 28.688 25.776 29 26.256C29.312 26.736 29.768 26.976 30.368 26.976ZM45.2641 30.288C43.5121 30.288 42.2041 29.652 41.3401 28.38C40.4761 27.084 40.0441 24.9 40.0441 21.828V17.796C40.0441 16.212 40.1761 14.748 40.4401 13.404C40.7041 12.036 41.1961 10.944 41.9161 10.128C42.6601 9.312 43.7401 8.904 45.1561 8.904C45.8521 8.904 46.4881 9.06 47.0641 9.372C47.6401 9.684 48.1561 10.068 48.6121 10.524V0.839998H52.4641V30H48.6121V28.668C48.1561 29.148 47.6521 29.544 47.1001 29.856C46.5721 30.144 45.9601 30.288 45.2641 30.288ZM46.2361 27.264C46.5961 27.264 46.9801 27.204 47.3881 27.084C47.7961 26.94 48.2041 26.736 48.6121 26.472V12.828C48.2761 12.588 47.9041 12.384 47.4961 12.216C47.0881 12.024 46.6441 11.928 46.1641 11.928C45.2761 11.928 44.6761 12.36 44.3641 13.224C44.0521 14.064 43.8961 15.084 43.8961 16.284V22.152C43.8961 23.112 43.9441 23.988 44.0401 24.78C44.1601 25.548 44.3881 26.16 44.7241 26.616C45.0601 27.048 45.5641 27.264 46.2361 27.264ZM61.1899 30.288C59.4379 30.288 58.1299 29.652 57.2659 28.38C56.4019 27.084 55.9699 24.9 55.9699 21.828V17.796C55.9699 16.212 56.1019 14.748 56.3659 13.404C56.6299 12.036 57.1219 10.944 57.8419 10.128C58.5859 9.312 59.6659 8.904 61.0819 8.904C61.7779 8.904 62.4139 9.06 62.9899 9.372C63.5659 9.684 64.0819 10.068 64.5379 10.524V0.839998H68.3899V30H64.5379V28.668C64.0819 29.148 63.5779 29.544 63.0259 29.856C62.4979 30.144 61.8859 30.288 61.1899 30.288ZM62.1619 27.264C62.5219 27.264 62.9059 27.204 63.3139 27.084C63.7219 26.94 64.1299 26.736 64.5379 26.472V12.828C64.2019 12.588 63.8299 12.384 63.4219 12.216C63.0139 12.024 62.5699 11.928 62.0899 11.928C61.2019 11.928 60.6019 12.36 60.2899 13.224C59.9779 14.064 59.8219 15.084 59.8219 16.284V22.152C59.8219 23.112 59.8699 23.988 59.9659 24.78C60.0859 25.548 60.3139 26.16 60.6499 26.616C60.9859 27.048 61.4899 27.264 62.1619 27.264Z" fill="black"/>
</svg>
