<svg width="72" height="72" viewBox="0 0 72 72" fill="none" xmlns="http://www.w3.org/2000/svg">
<g clip-path="url(#clip0_125_995)">
<path d="M37.56 9C38.3679 8.99995 39.1676 9.16308 39.9109 9.4796C40.6543 9.79612 41.3261 10.2595 41.886 10.842L42.246 11.253L46.44 16.5H60C61.5137 16.4995 62.9717 17.0712 64.0816 18.1005C65.1916 19.1298 65.8715 20.5405 65.985 22.05L66 22.5V45C66.0005 46.5137 65.4288 47.9717 64.3995 49.0816C63.3702 50.1916 61.9595 50.8715 60.45 50.985L60 51H54V57C54.0005 58.5137 53.4288 59.9717 52.3995 61.0816C51.3702 62.1916 49.9595 62.8715 48.45 62.985L48 63H12C10.4863 63.0005 9.0283 62.4288 7.91836 61.3995C6.80841 60.3702 6.12853 58.9595 6.015 57.45L6 57V27C5.99952 25.4863 6.57122 24.0283 7.60049 22.9184C8.62976 21.8084 10.0405 21.1285 11.55 21.015L12 21H18V15C17.9995 13.4863 18.5712 12.0283 19.6005 10.9184C20.6298 9.80841 22.0405 9.12853 23.55 9.015L24 9H37.56ZM37.56 15H24V21H25.56C26.4593 21.0001 27.3471 21.2024 28.1577 21.5918C28.9683 21.9813 29.6809 22.548 30.243 23.25L34.443 28.5H48C49.5913 28.5 51.1174 29.1321 52.2426 30.2574C53.3679 31.3826 54 32.9087 54 34.5V45H60V22.5H46.44C45.5407 22.4999 44.6529 22.2976 43.8423 21.9082C43.0317 21.5187 42.3191 20.952 41.757 20.25L37.56 15Z" fill="#0D0D0D"/>
</g>
<defs>
<clipPath id="clip0_125_995">
<rect width="72" height="72" fill="white"/>
</clipPath>
</defs>
</svg>
