<svg width="99" height="99" viewBox="0 0 99 99" fill="none" xmlns="http://www.w3.org/2000/svg">
<path d="M61.875 57.75C64.1532 57.75 66 55.9032 66 53.625C66 51.3468 64.1532 49.5 61.875 49.5C59.5968 49.5 57.75 51.3468 57.75 53.625C57.75 55.9032 59.5968 57.75 61.875 57.75Z" fill="#0D0D0D"/>
<path d="M70.125 49.5C72.4032 49.5 74.25 47.6532 74.25 45.375C74.25 43.0968 72.4032 41.25 70.125 41.25C67.8468 41.25 66 43.0968 66 45.375C66 47.6532 67.8468 49.5 70.125 49.5Z" fill="#0D0D0D"/>
<path d="M41.25 37.125H33V45.375H24.75V53.625H33V61.875H41.25V53.625H49.5V45.375H41.25V37.125Z" fill="#0D0D0D"/>
<path d="M61.875 20.625H37.125C29.4669 20.625 22.1224 23.6672 16.7073 29.0823C11.2922 34.4974 8.25 41.8419 8.25 49.5C8.25 57.1581 11.2922 64.5026 16.7073 69.9177C22.1224 75.3328 29.4669 78.375 37.125 78.375H61.875C69.5331 78.375 76.8776 75.3328 82.2927 69.9177C87.7078 64.5026 90.75 57.1581 90.75 49.5C90.75 41.8419 87.7078 34.4974 82.2927 29.0823C76.8776 23.6672 69.5331 20.625 61.875 20.625ZM61.875 70.125H37.125C31.6549 70.125 26.4089 67.952 22.5409 64.0841C18.673 60.2161 16.5 54.9701 16.5 49.5C16.5 44.0299 18.673 38.7839 22.5409 34.9159C26.4089 31.048 31.6549 28.875 37.125 28.875H61.875C67.3451 28.875 72.5911 31.048 76.4591 34.9159C80.327 38.7839 82.5 44.0299 82.5 49.5C82.5 54.9701 80.327 60.2161 76.4591 64.0841C72.5911 67.952 67.3451 70.125 61.875 70.125Z" fill="#0D0D0D"/>
</svg>
