<svg width="50" height="50" viewBox="0 0 50 50" fill="none" xmlns="http://www.w3.org/2000/svg">
<rect width="50" height="50" rx="10" fill="#F1EEDC"/>
<path fill-rule="evenodd" clip-rule="evenodd" d="M17.3333 17.5417C17.3333 15.6409 18.0884 13.8181 19.4324 12.4741C20.7764 11.1301 22.5993 10.375 24.5 10.375C26.4007 10.375 28.2236 11.1301 29.5676 12.4741C30.9116 13.8181 31.6667 15.6409 31.6667 17.5417C31.6667 19.4424 30.9116 21.2653 29.5676 22.6093C28.2236 23.9533 26.4007 24.7083 24.5 24.7083C22.5993 24.7083 20.7764 23.9533 19.4324 22.6093C18.0884 21.2653 17.3333 19.4424 17.3333 17.5417ZM17.3333 28.2917C14.9574 28.2917 12.6788 29.2355 10.9988 30.9155C9.31882 32.5955 8.375 34.8741 8.375 37.25C8.375 38.6755 8.94129 40.0427 9.9493 41.0507C10.9573 42.0587 12.3245 42.625 13.75 42.625H35.25C36.6755 42.625 38.0427 42.0587 39.0507 41.0507C40.0587 40.0427 40.625 38.6755 40.625 37.25C40.625 34.8741 39.6812 32.5955 38.0012 30.9155C36.3212 29.2355 34.0426 28.2917 31.6667 28.2917H17.3333Z" fill="#5A311B"/>
</svg>
