<svg width="94" height="94" viewBox="0 0 94 94" fill="none" xmlns="http://www.w3.org/2000/svg">
<path d="M62.6667 66.5833V74.4167H7.83337V66.5833C7.83337 66.5833 7.83337 50.9167 35.25 50.9167C62.6667 50.9167 62.6667 66.5833 62.6667 66.5833ZM48.9584 29.375C48.9584 26.6637 48.1544 24.0134 46.6481 21.7591C45.1418 19.5047 43.0009 17.7477 40.496 16.7101C37.9911 15.6726 35.2348 15.4011 32.5757 15.9301C29.9165 16.459 27.4739 17.7646 25.5568 19.6817C23.6396 21.5989 22.334 24.0415 21.8051 26.7006C21.2762 29.3598 21.5476 32.1161 22.5852 34.6209C23.6227 37.1258 25.3798 39.2668 27.6341 40.7731C29.8884 42.2794 32.5388 43.0833 35.25 43.0833C38.8857 43.0833 42.3725 41.6391 44.9433 39.0683C47.5141 36.4974 48.9584 33.0107 48.9584 29.375ZM62.4317 50.9167C64.8395 52.78 66.8097 55.1484 68.2036 57.8551C69.5976 60.5618 70.3814 63.5411 70.5 66.5833V74.4167H86.1667V66.5833C86.1667 66.5833 86.1667 52.3658 62.4317 50.9167ZM58.75 15.6667C56.0541 15.6517 53.4176 16.4577 51.1909 17.9775C53.57 21.3017 54.8493 25.2871 54.8493 29.375C54.8493 33.4629 53.57 37.4483 51.1909 40.7725C53.4176 42.2923 56.0541 43.0983 58.75 43.0833C62.3857 43.0833 65.8725 41.6391 68.4433 39.0683C71.0141 36.4974 72.4584 33.0107 72.4584 29.375C72.4584 25.7393 71.0141 22.2526 68.4433 19.6817C65.8725 17.1109 62.3857 15.6667 58.75 15.6667Z" fill="#0D0D0D"/>
</svg>
