<svg width="25" height="26" viewBox="0 0 25 26" fill="none" xmlns="http://www.w3.org/2000/svg">
<rect x="0.163818" y="0.97541" width="24.6475" height="24.6475" stroke="black"/>
<path d="M5.29883 20.488H6.76228L16.801 10.4493L15.3376 8.98586L5.29883 19.0246V20.488ZM3.24487 22.542V18.1773L16.801 4.64686C17.0064 4.45858 17.2334 4.3131 17.4819 4.2104C17.7304 4.1077 17.9913 4.05635 18.2645 4.05635C18.5383 4.05635 18.8036 4.1077 19.0604 4.2104C19.3171 4.3131 19.5396 4.46714 19.7279 4.67254L21.14 6.11031C21.3454 6.29859 21.4953 6.5211 21.5898 6.77785C21.6843 7.0346 21.7312 7.29134 21.7305 7.54809C21.7305 7.82195 21.6836 8.08314 21.5898 8.33167C21.496 8.5802 21.3461 8.80682 21.14 9.01153L7.60954 22.542H3.24487ZM16.0565 9.73042L15.3376 8.98586L16.801 10.4493L16.0565 9.73042Z" fill="black"/>
</svg>
