<svg width="44" height="25" viewBox="0 0 44 25" fill="none" xmlns="http://www.w3.org/2000/svg">
<path d="M0.512 20V0.559999H3.224V18.056H8.192V20H0.512ZM13.6511 20.192C12.6271 20.192 11.8191 19.984 11.2271 19.568C10.6351 19.152 10.2111 18.56 9.95506 17.792C9.71506 17.024 9.59506 16.12 9.59506 15.08V11.048C9.59506 10.008 9.71506 9.104 9.95506 8.336C10.2111 7.568 10.6351 6.976 11.2271 6.56C11.8191 6.144 12.6271 5.936 13.6511 5.936C14.6751 5.936 15.4751 6.144 16.0511 6.56C16.6431 6.976 17.0591 7.568 17.2991 8.336C17.5551 9.104 17.6831 10.008 17.6831 11.048V15.08C17.6831 16.12 17.5551 17.024 17.2991 17.792C17.0591 18.56 16.6431 19.152 16.0511 19.568C15.4751 19.984 14.6751 20.192 13.6511 20.192ZM13.6511 18.296C14.1471 18.296 14.4911 18.152 14.6831 17.864C14.8911 17.576 15.0111 17.2 15.0431 16.736C15.0911 16.256 15.1151 15.76 15.1151 15.248V10.904C15.1151 10.376 15.0911 9.88 15.0431 9.416C15.0111 8.952 14.8911 8.576 14.6831 8.288C14.4911 7.984 14.1471 7.832 13.6511 7.832C13.1551 7.832 12.8031 7.984 12.5951 8.288C12.3871 8.576 12.2591 8.952 12.2111 9.416C12.1791 9.88 12.1631 10.376 12.1631 10.904V15.248C12.1631 15.76 12.1791 16.256 12.2111 16.736C12.2591 17.2 12.3871 17.576 12.5951 17.864C12.8031 18.152 13.1551 18.296 13.6511 18.296ZM23.6304 24.296C22.7984 24.296 22.0464 24.208 21.3744 24.032C20.7024 23.856 20.1744 23.576 19.7904 23.192C19.4064 22.808 19.2144 22.304 19.2144 21.68C19.2144 21.232 19.3104 20.84 19.5024 20.504C19.6944 20.168 19.9424 19.88 20.2464 19.64C20.5504 19.384 20.8704 19.176 21.2064 19.016C20.7584 18.888 20.4224 18.688 20.1984 18.416C19.9744 18.128 19.8624 17.832 19.8624 17.528C19.8624 17.016 19.9984 16.576 20.2704 16.208C20.5424 15.84 20.9184 15.44 21.3984 15.008C20.8704 14.608 20.4704 14.096 20.1984 13.472C19.9264 12.848 19.7904 11.984 19.7904 10.88C19.7904 9.792 19.9344 8.888 20.2224 8.168C20.5264 7.432 20.9664 6.88 21.5424 6.512C22.1344 6.128 22.8544 5.936 23.7024 5.936C24.4544 5.936 25.0544 6.064 25.5024 6.32C25.9664 6.576 26.3184 6.96 26.5584 7.472C26.6384 7.344 26.8544 7.128 27.2064 6.824C27.5584 6.504 27.9664 6.24 28.4304 6.032L28.8144 5.864L29.4624 7.52C29.2544 7.552 28.9744 7.632 28.6224 7.76C28.2864 7.872 27.9664 7.992 27.6624 8.12C27.3744 8.232 27.1904 8.328 27.1104 8.408C27.2224 8.68 27.3184 9.072 27.3984 9.584C27.4944 10.096 27.5424 10.552 27.5424 10.952C27.5424 11.896 27.4224 12.728 27.1824 13.448C26.9424 14.168 26.5424 14.736 25.9824 15.152C25.4384 15.552 24.6784 15.752 23.7024 15.752C23.4944 15.752 23.2704 15.736 23.0304 15.704C22.7904 15.672 22.5744 15.632 22.3824 15.584C22.2864 15.728 22.1824 15.896 22.0704 16.088C21.9744 16.28 21.9264 16.464 21.9264 16.64C21.9264 16.816 22.0144 16.96 22.1904 17.072C22.3824 17.168 22.6784 17.232 23.0784 17.264L25.2384 17.456C26.3264 17.552 27.1344 17.88 27.6624 18.44C28.1904 19 28.4544 19.8 28.4544 20.84C28.4544 21.592 28.2784 22.224 27.9264 22.736C27.5744 23.264 27.0384 23.656 26.3184 23.912C25.6144 24.168 24.7184 24.296 23.6304 24.296ZM23.8224 22.28C24.7344 22.28 25.4064 22.168 25.8384 21.944C26.2704 21.736 26.4864 21.392 26.4864 20.912C26.4864 20.624 26.4304 20.384 26.3184 20.192C26.2224 20 26.0384 19.848 25.7664 19.736C25.4944 19.624 25.1024 19.544 24.5904 19.496L22.4064 19.304C22.2304 19.48 22.0624 19.656 21.9024 19.832C21.7424 20.008 21.6144 20.192 21.5184 20.384C21.4224 20.592 21.3744 20.808 21.3744 21.032C21.3744 21.448 21.5504 21.76 21.9024 21.968C22.2544 22.176 22.8944 22.28 23.8224 22.28ZM23.7024 13.952C24.0704 13.952 24.3584 13.888 24.5664 13.76C24.7904 13.616 24.9584 13.416 25.0704 13.16C25.1824 12.888 25.2544 12.56 25.2864 12.176C25.3344 11.792 25.3584 11.36 25.3584 10.88C25.3584 10.4 25.3344 9.968 25.2864 9.584C25.2544 9.184 25.1824 8.848 25.0704 8.576C24.9744 8.288 24.8144 8.072 24.5904 7.928C24.3824 7.784 24.0944 7.712 23.7264 7.712C23.3744 7.712 23.0784 7.784 22.8384 7.928C22.6144 8.072 22.4464 8.28 22.3344 8.552C22.2224 8.808 22.1424 9.136 22.0944 9.536C22.0464 9.92 22.0224 10.368 22.0224 10.88C22.0224 11.312 22.0384 11.72 22.0704 12.104C22.1184 12.472 22.1984 12.792 22.3104 13.064C22.4384 13.336 22.6144 13.552 22.8384 13.712C23.0624 13.872 23.3504 13.952 23.7024 13.952ZM30.6281 20V6.128H33.1961V20H30.6281ZM30.6281 4.064V1.376H33.1961V4.064H30.6281ZM35.9444 20V6.128H38.5124V7.496C38.9764 7.064 39.4884 6.696 40.0484 6.392C40.6084 6.088 41.2244 5.936 41.8964 5.936C42.4564 5.936 42.8804 6.08 43.1684 6.368C43.4724 6.656 43.6804 7.016 43.7924 7.448C43.9204 7.88 43.9844 8.32 43.9844 8.768V20H41.4164V9.512C41.4164 9.016 41.3444 8.632 41.2004 8.36C41.0564 8.088 40.7604 7.952 40.3124 7.952C40.0244 7.952 39.7204 8.04 39.4004 8.216C39.0964 8.376 38.8004 8.576 38.5124 8.816V20H35.9444Z" fill="black"/>
</svg>
