<svg width="72" height="25" viewBox="0 0 72 25" fill="none" xmlns="http://www.w3.org/2000/svg">
<path d="M0.512 20V0.559999H4.424C5.72 0.559999 6.792 0.735999 7.64 1.088C8.488 1.424 9.112 1.976 9.512 2.744C9.928 3.496 10.136 4.488 10.136 5.72C10.136 6.472 10.056 7.16 9.896 7.784C9.736 8.392 9.48 8.912 9.128 9.344C8.776 9.76 8.312 10.064 7.736 10.256L10.496 20H7.88L5.336 10.88H3.224V20H0.512ZM3.224 8.936H4.256C5.024 8.936 5.648 8.84 6.128 8.648C6.608 8.456 6.96 8.128 7.184 7.664C7.408 7.2 7.52 6.552 7.52 5.72C7.52 4.584 7.312 3.768 6.896 3.272C6.48 2.76 5.656 2.504 4.424 2.504H3.224V8.936ZM16.3704 20.192C15.2824 20.192 14.4424 19.984 13.8504 19.568C13.2584 19.136 12.8424 18.512 12.6024 17.696C12.3784 16.864 12.2664 15.848 12.2664 14.648V11.48C12.2664 10.248 12.3864 9.224 12.6264 8.408C12.8664 7.592 13.2824 6.976 13.8744 6.56C14.4824 6.144 15.3144 5.936 16.3704 5.936C17.5384 5.936 18.3944 6.176 18.9384 6.656C19.4984 7.136 19.8664 7.832 20.0424 8.744C20.2184 9.64 20.3064 10.72 20.3064 11.984V13.112H14.8344V15.896C14.8344 16.456 14.8824 16.912 14.9784 17.264C15.0904 17.616 15.2584 17.88 15.4824 18.056C15.7224 18.216 16.0264 18.296 16.3944 18.296C16.7784 18.296 17.0664 18.208 17.2584 18.032C17.4664 17.84 17.6024 17.576 17.6664 17.24C17.7464 16.888 17.7864 16.48 17.7864 16.016V15.176H20.2824V15.704C20.2824 17.096 19.9864 18.192 19.3944 18.992C18.8024 19.792 17.7944 20.192 16.3704 20.192ZM14.8344 11.72H17.7864V10.472C17.7864 9.896 17.7544 9.416 17.6904 9.032C17.6264 8.632 17.4904 8.336 17.2824 8.144C17.0904 7.936 16.7784 7.832 16.3464 7.832C15.9304 7.832 15.6104 7.928 15.3864 8.12C15.1784 8.312 15.0344 8.64 14.9544 9.104C14.8744 9.552 14.8344 10.176 14.8344 10.976V11.72ZM26.3039 24.344C25.4559 24.344 24.6879 24.248 23.9999 24.056C23.3279 23.88 22.7919 23.6 22.3919 23.216C22.0079 22.832 21.8159 22.328 21.8159 21.704C21.8159 21.224 21.9279 20.8 22.1519 20.432C22.3759 20.08 22.6639 19.776 23.0159 19.52C23.3679 19.264 23.7359 19.064 24.1199 18.92L25.3199 19.088C25.1119 19.28 24.9119 19.48 24.7199 19.688C24.5279 19.88 24.3679 20.08 24.2399 20.288C24.1119 20.512 24.0479 20.752 24.0479 21.008C24.0479 21.424 24.2239 21.736 24.5759 21.944C24.9439 22.152 25.5919 22.256 26.5199 22.256C27.4319 22.256 28.1039 22.144 28.5359 21.92C28.9839 21.712 29.2079 21.376 29.2079 20.912C29.2079 20.624 29.1519 20.384 29.0399 20.192C28.9279 20.016 28.7359 19.872 28.4639 19.76C28.1919 19.648 27.7999 19.568 27.2879 19.52L24.2639 19.136C23.6399 19.056 23.1759 18.856 22.8719 18.536C22.5679 18.216 22.4159 17.864 22.4159 17.48C22.4159 16.904 22.5759 16.416 22.8959 16.016C23.2319 15.616 23.6799 15.168 24.2399 14.672L25.1039 15.344C25.0079 15.472 24.8879 15.656 24.7439 15.896C24.5999 16.12 24.5279 16.344 24.5279 16.568C24.5279 16.744 24.6159 16.888 24.7919 17C24.9839 17.112 25.2799 17.184 25.6799 17.216L28.0079 17.432C29.0959 17.528 29.9039 17.856 30.4319 18.416C30.9599 18.976 31.2239 19.776 31.2239 20.816C31.2239 21.584 31.0399 22.232 30.6719 22.76C30.3199 23.288 29.7839 23.68 29.0639 23.936C28.3439 24.208 27.4239 24.344 26.3039 24.344ZM26.3999 15.728C25.4559 15.728 24.6879 15.52 24.0959 15.104C23.5039 14.688 23.0639 14.112 22.7759 13.376C22.5039 12.64 22.3679 11.8 22.3679 10.856C22.3679 9.784 22.5199 8.888 22.8239 8.168C23.1279 7.432 23.5759 6.88 24.1679 6.512C24.7759 6.128 25.5199 5.936 26.3999 5.936C27.3119 5.936 28.0559 6.168 28.6319 6.632C29.2079 7.08 29.6319 7.68 29.9039 8.432C30.1759 9.184 30.3119 10.016 30.3119 10.928C30.3119 11.872 30.1839 12.712 29.9279 13.448C29.6879 14.168 29.2799 14.728 28.7039 15.128C28.1439 15.528 27.3759 15.728 26.3999 15.728ZM26.3999 13.88C26.7519 13.88 27.0319 13.816 27.2399 13.688C27.4479 13.544 27.5999 13.344 27.6959 13.088C27.8079 12.832 27.8799 12.52 27.9119 12.152C27.9599 11.768 27.9839 11.336 27.9839 10.856C27.9839 10.376 27.9679 9.944 27.9359 9.56C27.9039 9.176 27.8319 8.856 27.7199 8.6C27.6079 8.328 27.4479 8.12 27.2399 7.976C27.0319 7.832 26.7599 7.76 26.4239 7.76C26.0719 7.76 25.7839 7.832 25.5599 7.976C25.3519 8.104 25.1839 8.304 25.0559 8.576C24.9439 8.832 24.8639 9.152 24.8159 9.536C24.7839 9.92 24.7679 10.36 24.7679 10.856C24.7679 11.288 24.7839 11.688 24.8159 12.056C24.8639 12.424 24.9439 12.744 25.0559 13.016C25.1679 13.288 25.3279 13.504 25.5359 13.664C25.7599 13.808 26.0479 13.88 26.3999 13.88ZM29.8319 8.456L29.2319 7.496C29.3599 7.272 29.6479 6.992 30.0959 6.656C30.5439 6.32 31.0239 6.04 31.5359 5.816L32.2079 7.496C31.9839 7.544 31.6799 7.632 31.2959 7.76C30.9279 7.888 30.5919 8.024 30.2879 8.168C29.9839 8.296 29.8319 8.392 29.8319 8.456ZM33.3937 20V6.128H35.9617V20H33.3937ZM33.3937 4.064V1.376H35.9617V4.064H33.3937ZM41.9261 20.192C40.7901 20.192 39.8781 19.84 39.1901 19.136C38.5021 18.416 38.1101 17.472 38.0141 16.304L40.1501 15.656C40.2781 16.536 40.4941 17.2 40.7981 17.648C41.1021 18.08 41.5501 18.296 42.1421 18.296C42.6061 18.296 42.9581 18.168 43.1981 17.912C43.4381 17.64 43.5581 17.28 43.5581 16.832C43.5581 16.432 43.4701 16.072 43.2941 15.752C43.1181 15.432 42.8301 15.104 42.4301 14.768L40.0541 12.728C39.5741 12.312 39.1661 11.848 38.8301 11.336C38.5101 10.824 38.3501 10.16 38.3501 9.344C38.3501 8.608 38.4941 7.992 38.7821 7.496C39.0861 6.984 39.5021 6.6 40.0301 6.344C40.5741 6.072 41.2061 5.936 41.9261 5.936C43.0781 5.936 43.9581 6.296 44.5661 7.016C45.1741 7.72 45.5261 8.576 45.6221 9.584L43.7981 10.232C43.7341 9.752 43.6381 9.336 43.5101 8.984C43.3821 8.616 43.1981 8.336 42.9581 8.144C42.7181 7.936 42.4061 7.832 42.0221 7.832C41.6061 7.832 41.2701 7.976 41.0141 8.264C40.7741 8.536 40.6541 8.864 40.6541 9.248C40.6541 9.488 40.7021 9.728 40.7981 9.968C40.9101 10.192 41.0941 10.416 41.3501 10.64L43.7981 12.896C44.1341 13.2 44.4461 13.528 44.7341 13.88C45.0381 14.232 45.2861 14.632 45.4781 15.08C45.6701 15.528 45.7661 16.048 45.7661 16.64C45.7661 17.424 45.6061 18.08 45.2861 18.608C44.9661 19.136 44.5181 19.536 43.9421 19.808C43.3661 20.064 42.6941 20.192 41.9261 20.192ZM51.3826 20.192C50.6626 20.192 50.0786 20.056 49.6306 19.784C49.1986 19.512 48.8786 19.128 48.6706 18.632C48.4786 18.136 48.3826 17.552 48.3826 16.88V7.832H46.9186V6.128H48.3826V2.072H50.9506V6.128H53.1826V7.832H50.9506V16.712C50.9506 17.256 51.0386 17.648 51.2146 17.888C51.3906 18.112 51.7266 18.224 52.2226 18.224C52.3506 18.224 52.4946 18.216 52.6546 18.2C52.8306 18.184 52.9986 18.168 53.1586 18.152V20.048C52.8386 20.096 52.5426 20.128 52.2706 20.144C51.9986 20.176 51.7026 20.192 51.3826 20.192ZM58.9094 20.192C57.8214 20.192 56.9814 19.984 56.3894 19.568C55.7974 19.136 55.3814 18.512 55.1414 17.696C54.9174 16.864 54.8054 15.848 54.8054 14.648V11.48C54.8054 10.248 54.9254 9.224 55.1654 8.408C55.4054 7.592 55.8214 6.976 56.4134 6.56C57.0214 6.144 57.8534 5.936 58.9094 5.936C60.0774 5.936 60.9334 6.176 61.4774 6.656C62.0374 7.136 62.4054 7.832 62.5814 8.744C62.7574 9.64 62.8454 10.72 62.8454 11.984V13.112H57.3734V15.896C57.3734 16.456 57.4214 16.912 57.5174 17.264C57.6294 17.616 57.7974 17.88 58.0214 18.056C58.2614 18.216 58.5654 18.296 58.9334 18.296C59.3174 18.296 59.6054 18.208 59.7974 18.032C60.0054 17.84 60.1414 17.576 60.2054 17.24C60.2854 16.888 60.3254 16.48 60.3254 16.016V15.176H62.8214V15.704C62.8214 17.096 62.5254 18.192 61.9334 18.992C61.3414 19.792 60.3334 20.192 58.9094 20.192ZM57.3734 11.72H60.3254V10.472C60.3254 9.896 60.2934 9.416 60.2294 9.032C60.1654 8.632 60.0294 8.336 59.8214 8.144C59.6294 7.936 59.3174 7.832 58.8854 7.832C58.4694 7.832 58.1494 7.928 57.9254 8.12C57.7174 8.312 57.5734 8.64 57.4934 9.104C57.4134 9.552 57.3734 10.176 57.3734 10.976V11.72ZM65.243 20V6.128H67.811V8.096C68.323 7.248 68.835 6.68 69.347 6.392C69.859 6.104 70.371 5.96 70.883 5.96C70.947 5.96 71.003 5.96 71.051 5.96C71.115 5.96 71.195 5.968 71.291 5.984V8.816C71.099 8.736 70.875 8.672 70.619 8.624C70.379 8.56 70.131 8.528 69.875 8.528C69.475 8.528 69.107 8.624 68.771 8.816C68.451 8.992 68.131 9.344 67.811 9.872V20H65.243Z" fill="black"/>
</svg>
