<svg width="51" height="19" viewBox="0 0 51 19" fill="none" xmlns="http://www.w3.org/2000/svg">
<path d="M11.0742 13.6875C11.0742 13.2891 11.0117 12.9375 10.8867 12.6328C10.7695 12.3203 10.5586 12.0391 10.2539 11.7891C9.95703 11.5391 9.54297 11.3008 9.01172 11.0742C8.48828 10.8477 7.82422 10.6172 7.01953 10.3828C6.17578 10.1328 5.41406 9.85547 4.73438 9.55078C4.05469 9.23828 3.47266 8.88281 2.98828 8.48438C2.50391 8.08594 2.13281 7.62891 1.875 7.11328C1.61719 6.59766 1.48828 6.00781 1.48828 5.34375C1.48828 4.67969 1.625 4.06641 1.89844 3.50391C2.17188 2.94141 2.5625 2.45312 3.07031 2.03906C3.58594 1.61719 4.19922 1.28906 4.91016 1.05469C5.62109 0.820312 6.41406 0.703125 7.28906 0.703125C8.57031 0.703125 9.65625 0.949219 10.5469 1.44141C11.4453 1.92578 12.1289 2.5625 12.5977 3.35156C13.0664 4.13281 13.3008 4.96875 13.3008 5.85938H11.0508C11.0508 5.21875 10.9141 4.65234 10.6406 4.16016C10.3672 3.66016 9.95312 3.26953 9.39844 2.98828C8.84375 2.69922 8.14062 2.55469 7.28906 2.55469C6.48438 2.55469 5.82031 2.67578 5.29688 2.91797C4.77344 3.16016 4.38281 3.48828 4.125 3.90234C3.875 4.31641 3.75 4.78906 3.75 5.32031C3.75 5.67969 3.82422 6.00781 3.97266 6.30469C4.12891 6.59375 4.36719 6.86328 4.6875 7.11328C5.01562 7.36328 5.42969 7.59375 5.92969 7.80469C6.4375 8.01562 7.04297 8.21875 7.74609 8.41406C8.71484 8.6875 9.55078 8.99219 10.2539 9.32812C10.957 9.66406 11.5352 10.043 11.9883 10.4648C12.4492 10.8789 12.7891 11.3516 13.0078 11.8828C13.2344 12.4062 13.3477 13 13.3477 13.6641C13.3477 14.3594 13.207 14.9883 12.9258 15.5508C12.6445 16.1133 12.2422 16.5938 11.7188 16.9922C11.1953 17.3906 10.5664 17.6992 9.83203 17.918C9.10547 18.1289 8.29297 18.2344 7.39453 18.2344C6.60547 18.2344 5.82812 18.125 5.0625 17.9062C4.30469 17.6875 3.61328 17.3594 2.98828 16.9219C2.37109 16.4844 1.875 15.9453 1.5 15.3047C1.13281 14.6562 0.949219 13.9062 0.949219 13.0547H3.19922C3.19922 13.6406 3.3125 14.1445 3.53906 14.5664C3.76562 14.9805 4.07422 15.3242 4.46484 15.5977C4.86328 15.8711 5.3125 16.0742 5.8125 16.207C6.32031 16.332 6.84766 16.3945 7.39453 16.3945C8.18359 16.3945 8.85156 16.2852 9.39844 16.0664C9.94531 15.8477 10.3594 15.5352 10.6406 15.1289C10.9297 14.7227 11.0742 14.2422 11.0742 13.6875ZM23.3789 15.832V9.30469C23.3789 8.80469 23.2773 8.37109 23.0742 8.00391C22.8789 7.62891 22.582 7.33984 22.1836 7.13672C21.7852 6.93359 21.293 6.83203 20.707 6.83203C20.1602 6.83203 19.6797 6.92578 19.2656 7.11328C18.8594 7.30078 18.5391 7.54688 18.3047 7.85156C18.0781 8.15625 17.9648 8.48438 17.9648 8.83594H15.7969C15.7969 8.38281 15.9141 7.93359 16.1484 7.48828C16.3828 7.04297 16.7188 6.64062 17.1562 6.28125C17.6016 5.91406 18.1328 5.625 18.75 5.41406C19.375 5.19531 20.0703 5.08594 20.8359 5.08594C21.7578 5.08594 22.5703 5.24219 23.2734 5.55469C23.9844 5.86719 24.5391 6.33984 24.9375 6.97266C25.3438 7.59766 25.5469 8.38281 25.5469 9.32812V15.2344C25.5469 15.6562 25.582 16.1055 25.6523 16.582C25.7305 17.0586 25.8438 17.4688 25.9922 17.8125V18H23.7305C23.6211 17.75 23.5352 17.418 23.4727 17.0039C23.4102 16.582 23.3789 16.1914 23.3789 15.832ZM23.7539 10.3125L23.7773 11.8359H21.5859C20.9688 11.8359 20.418 11.8867 19.9336 11.9883C19.4492 12.082 19.043 12.2266 18.7148 12.4219C18.3867 12.6172 18.1367 12.8633 17.9648 13.1602C17.793 13.4492 17.707 13.7891 17.707 14.1797C17.707 14.5781 17.7969 14.9414 17.9766 15.2695C18.1562 15.5977 18.4258 15.8594 18.7852 16.0547C19.1523 16.2422 19.6016 16.3359 20.1328 16.3359C20.7969 16.3359 21.3828 16.1953 21.8906 15.9141C22.3984 15.6328 22.8008 15.2891 23.0977 14.8828C23.4023 14.4766 23.5664 14.082 23.5898 13.6992L24.5156 14.7422C24.4609 15.0703 24.3125 15.4336 24.0703 15.832C23.8281 16.2305 23.5039 16.6133 23.0977 16.9805C22.6992 17.3398 22.2227 17.6406 21.668 17.8828C21.1211 18.1172 20.5039 18.2344 19.8164 18.2344C18.957 18.2344 18.2031 18.0664 17.5547 17.7305C16.9141 17.3945 16.4141 16.9453 16.0547 16.3828C15.7031 15.8125 15.5273 15.1758 15.5273 14.4727C15.5273 13.793 15.6602 13.1953 15.9258 12.6797C16.1914 12.1562 16.5742 11.7227 17.0742 11.3789C17.5742 11.0273 18.1758 10.7617 18.8789 10.582C19.582 10.4023 20.3672 10.3125 21.2344 10.3125H23.7539ZM32.625 16.043L36.0938 5.32031H38.3086L33.75 18H32.2969L32.625 16.043ZM29.7305 5.32031L33.3047 16.1016L33.5508 18H32.0977L27.5039 5.32031H29.7305ZM45.4922 18.2344C44.6094 18.2344 43.8086 18.0859 43.0898 17.7891C42.3789 17.4844 41.7656 17.0586 41.25 16.5117C40.7422 15.9648 40.3516 15.3164 40.0781 14.5664C39.8047 13.8164 39.668 12.9961 39.668 12.1055V11.6133C39.668 10.582 39.8203 9.66406 40.125 8.85938C40.4297 8.04688 40.8438 7.35938 41.3672 6.79688C41.8906 6.23438 42.4844 5.80859 43.1484 5.51953C43.8125 5.23047 44.5 5.08594 45.2109 5.08594C46.1172 5.08594 46.8984 5.24219 47.5547 5.55469C48.2188 5.86719 48.7617 6.30469 49.1836 6.86719C49.6055 7.42188 49.918 8.07812 50.1211 8.83594C50.3242 9.58594 50.4258 10.4062 50.4258 11.2969V12.2695H40.957V10.5H48.2578V10.3359C48.2266 9.77344 48.1094 9.22656 47.9062 8.69531C47.7109 8.16406 47.3984 7.72656 46.9688 7.38281C46.5391 7.03906 45.9531 6.86719 45.2109 6.86719C44.7188 6.86719 44.2656 6.97266 43.8516 7.18359C43.4375 7.38672 43.082 7.69141 42.7852 8.09766C42.4883 8.50391 42.2578 9 42.0938 9.58594C41.9297 10.1719 41.8477 10.8477 41.8477 11.6133V12.1055C41.8477 12.707 41.9297 13.2734 42.0938 13.8047C42.2656 14.3281 42.5117 14.7891 42.832 15.1875C43.1602 15.5859 43.5547 15.8984 44.0156 16.125C44.4844 16.3516 45.0156 16.4648 45.6094 16.4648C46.375 16.4648 47.0234 16.3086 47.5547 15.9961C48.0859 15.6836 48.5508 15.2656 48.9492 14.7422L50.2617 15.7852C49.9883 16.1992 49.6406 16.5938 49.2188 16.9688C48.7969 17.3438 48.2773 17.6484 47.6602 17.8828C47.0508 18.1172 46.3281 18.2344 45.4922 18.2344Z" fill="black"/>
</svg>
