<svg width="46" height="46" viewBox="0 0 46 46" fill="none" xmlns="http://www.w3.org/2000/svg">
<circle cx="22.5" cy="22.5" r="19.5" fill="#E5DDC5"/>
<path d="M17.7165 31.7766L26.9702 22.5099L17.7049 13.2535L19.6937 11.2639L30.9499 22.5077L19.7061 33.7639L17.7165 31.7766Z" fill="black"/>
<path d="M22.5016 2.82488C11.6453 2.83085 2.81891 11.667 2.82489 22.5232C2.83086 33.3795 11.667 42.2058 22.5232 42.1999C33.3795 42.1939 42.2059 33.3578 42.1999 22.5016C42.1939 11.6453 33.3578 2.81891 22.5016 2.82488ZM22.5217 39.3874C13.2165 39.3925 5.6425 31.8268 5.63739 22.5217C5.63227 13.2165 13.1979 5.6425 22.5031 5.63738C31.8083 5.63226 39.3823 13.1979 39.3874 22.5031C39.3925 31.8083 31.8268 39.3823 22.5217 39.3874Z" fill="black"/>
</svg>
