<svg width="46" height="47" viewBox="0 0 46 47" fill="none" xmlns="http://www.w3.org/2000/svg">
<circle cx="22.5247" cy="23.5248" r="19.5" transform="rotate(-179.777 22.5247 23.5248)" fill="#E5DDC5"/>
<path d="M27.3443 14.2669L18.0546 23.4975L27.2837 32.79L25.2872 34.7717L14.0749 23.4842L25.3625 12.2719L27.3443 14.2669Z" fill="black"/>
<path d="M22.4465 43.1998C33.3027 43.2361 42.1634 34.4345 42.1998 23.5783C42.2361 12.7221 33.4344 3.86132 22.5783 3.825C11.7221 3.78867 2.86132 12.5903 2.82499 23.4465C2.78867 34.3027 11.5903 43.1635 22.4465 43.1998ZM22.5688 6.63748C31.874 6.66862 39.4184 14.2637 39.3873 23.5689C39.3562 32.874 31.761 40.4184 22.4559 40.3873C13.1508 40.3562 5.60634 32.761 5.63748 23.4559C5.66861 14.1508 13.2637 6.60635 22.5688 6.63748Z" fill="black"/>
</svg>
