<svg width="24" height="23" viewBox="0 0 24 23" fill="none" xmlns="http://www.w3.org/2000/svg">
<rect x="0.762207" y="0.565575" width="22.2623" height="22.2623" stroke="black"/>
<path d="M7.82581 19.1175C7.39911 19.1175 7.04292 18.9746 6.75722 18.6889C6.4709 18.4026 6.32774 18.0461 6.32774 17.6194V6.13115H5.40015V5.20355H9.11053V4.4893H14.6761V5.20355H18.3865V6.13115H17.4589V17.6194C17.4589 18.0461 17.316 18.4023 17.0303 18.688C16.744 18.9743 16.3875 19.1175 15.9608 19.1175H7.82581ZM9.86003 16.3347H10.7876V7.98634H9.86003V16.3347ZM12.999 16.3347H13.9266V7.98634H12.999V16.3347Z" fill="black"/>
<path d="M7.82581 19.1175C7.39911 19.1175 7.04292 18.9746 6.75722 18.6889C6.4709 18.4026 6.32774 18.0461 6.32774 17.6194V6.13115H5.40015V5.20355H9.11053V4.4893H14.6761V5.20355H18.3865V6.13115H17.4589V17.6194C17.4589 18.0461 17.316 18.4023 17.0303 18.688C16.744 18.9743 16.3875 19.1175 15.9608 19.1175H7.82581ZM9.86003 16.3347H10.7876V7.98634H9.86003V16.3347ZM12.999 16.3347H13.9266V7.98634H12.999V16.3347Z" stroke="black"/>
</svg>
