<svg width="61" height="61" viewBox="0 0 61 61" fill="none" xmlns="http://www.w3.org/2000/svg">
<rect width="61" height="61" rx="20" fill="#EF7015"/>
<path d="M13.3 49.5H47.4M20.4 47.3L13.4 47.5L13.6 12.5L19.9 12.6M20.4 47.3L19.9 12.6M20.4 47.3L21.7 46.8M19.9 12.6L21.8 16L21.9 20.6M21.7 46.8L22 20.5L29 20.7L28.2 46.6L21.7 46.8ZM42 21.2C42.6445 20.2244 43.4834 19.3922 44.4641 18.7556C45.4449 18.1189 46.5465 17.6915 47.7 17.5M31 14.9L29.6 47.1L38.3 47L40 15.4L31 14.9ZM41 21.2L39.5 47.5L47.3 47.6L48.7 21.3L41 21.2Z" stroke="#5A311B" stroke-linecap="round" stroke-linejoin="round"/>
</svg>
