<svg width="127" height="34" viewBox="0 0 127 34" fill="none" xmlns="http://www.w3.org/2000/svg">
<path d="M7.4 33L0.88 0.599998H6.12L10.4 23.52L14.4 0.599998H19.76L13.24 33H7.4ZM24.4356 33.36C23.3956 33.36 22.489 33.0933 21.7156 32.56C20.969 32 20.3956 31.3067 19.9956 30.48C19.5956 29.6267 19.3956 28.7467 19.3956 27.84C19.3956 26.4 19.6623 25.1867 20.1956 24.2C20.729 23.2133 21.4356 22.3867 22.3156 21.72C23.2223 21.0533 24.2223 20.48 25.3156 20C26.4356 19.4933 27.5823 19.04 28.7556 18.64V16.64C28.7556 15.9733 28.7023 15.4133 28.5956 14.96C28.5156 14.5067 28.3423 14.16 28.0756 13.92C27.809 13.68 27.4223 13.56 26.9156 13.56C26.4356 13.56 26.049 13.6667 25.7556 13.88C25.489 14.0933 25.289 14.4 25.1556 14.8C25.049 15.1733 24.9956 15.6133 24.9956 16.12L24.9156 17.52L19.7156 17.32C19.8223 14.6533 20.489 12.6933 21.7156 11.44C22.9423 10.16 24.8223 9.52 27.3556 9.52C29.6756 9.52 31.369 10.16 32.4356 11.44C33.5023 12.72 34.0356 14.4533 34.0356 16.64V27.32C34.0356 28.1733 34.049 28.9467 34.0756 29.64C34.129 30.3333 34.1823 30.96 34.2356 31.52C34.3156 32.08 34.3823 32.5733 34.4356 33H29.5156C29.4356 32.4667 29.3423 31.8667 29.2356 31.2C29.129 30.5067 29.049 30 28.9956 29.68C28.729 30.6133 28.2223 31.4667 27.4756 32.24C26.729 32.9867 25.7156 33.36 24.4356 33.36ZM26.4356 29.32C26.7823 29.32 27.1023 29.24 27.3956 29.08C27.689 28.8933 27.9556 28.68 28.1956 28.44C28.4356 28.2 28.6223 27.9867 28.7556 27.8V21.36C28.1423 21.7067 27.569 22.0533 27.0356 22.4C26.529 22.7467 26.089 23.1333 25.7156 23.56C25.3423 23.96 25.049 24.4 24.8356 24.88C24.6223 25.36 24.5156 25.92 24.5156 26.56C24.5156 27.4133 24.6756 28.0933 24.9956 28.6C25.3423 29.08 25.8223 29.32 26.4356 29.32ZM38.3384 33V0.599998H43.7384V33H38.3384ZM55.0566 33.36C53.3766 33.36 51.9899 33.0533 50.8966 32.44C49.8032 31.8 48.9766 30.88 48.4166 29.68C47.8832 28.48 47.6166 27.0267 47.6166 25.32V17.56C47.6166 15.8533 47.8832 14.4 48.4166 13.2C48.9766 12 49.8032 11.0933 50.8966 10.48C51.9899 9.84 53.3766 9.52 55.0566 9.52C56.7366 9.52 58.1232 9.84 59.2166 10.48C60.3366 11.0933 61.1632 12 61.6966 13.2C62.2566 14.4 62.5366 15.8533 62.5366 17.56V25.32C62.5366 27.0267 62.2566 28.48 61.6966 29.68C61.1632 30.88 60.3366 31.8 59.2166 32.44C58.1232 33.0533 56.7366 33.36 55.0566 33.36ZM55.0966 29.6C55.7099 29.6 56.1632 29.4267 56.4566 29.08C56.7499 28.7333 56.9366 28.2667 57.0166 27.68C57.0966 27.0667 57.1366 26.4 57.1366 25.68V17.2C57.1366 16.48 57.0966 15.8267 57.0166 15.24C56.9366 14.6533 56.7499 14.1867 56.4566 13.84C56.1632 13.4667 55.7099 13.28 55.0966 13.28C54.4832 13.28 54.0299 13.4667 53.7366 13.84C53.4432 14.1867 53.2432 14.6533 53.1366 15.24C53.0566 15.8267 53.0166 16.48 53.0166 17.2V25.68C53.0166 26.4 53.0566 27.0667 53.1366 27.68C53.2432 28.2667 53.4432 28.7333 53.7366 29.08C54.0299 29.4267 54.4832 29.6 55.0966 29.6ZM66.3797 33V9.88H71.8197V13.44C72.6197 12.08 73.4197 11.1067 74.2197 10.52C75.0197 9.90667 75.8997 9.6 76.8597 9.6C77.0197 9.6 77.153 9.61333 77.2597 9.64C77.393 9.64 77.5397 9.65333 77.6997 9.68V15.32C77.3797 15.1867 77.0197 15.08 76.6197 15C76.2464 14.8933 75.8597 14.84 75.4597 14.84C74.7397 14.84 74.0864 15.0133 73.4997 15.36C72.913 15.7067 72.353 16.28 71.8197 17.08V33H66.3797ZM83.6934 33.36C82.6534 33.36 81.7468 33.0933 80.9734 32.56C80.2268 32 79.6534 31.3067 79.2534 30.48C78.8534 29.6267 78.6534 28.7467 78.6534 27.84C78.6534 26.4 78.9201 25.1867 79.4534 24.2C79.9868 23.2133 80.6934 22.3867 81.5734 21.72C82.4801 21.0533 83.4801 20.48 84.5734 20C85.6934 19.4933 86.8401 19.04 88.0134 18.64V16.64C88.0134 15.9733 87.9601 15.4133 87.8534 14.96C87.7734 14.5067 87.6001 14.16 87.3334 13.92C87.0668 13.68 86.6801 13.56 86.1734 13.56C85.6934 13.56 85.3068 13.6667 85.0134 13.88C84.7468 14.0933 84.5468 14.4 84.4134 14.8C84.3068 15.1733 84.2534 15.6133 84.2534 16.12L84.1734 17.52L78.9734 17.32C79.0801 14.6533 79.7468 12.6933 80.9734 11.44C82.2001 10.16 84.0801 9.52 86.6134 9.52C88.9334 9.52 90.6268 10.16 91.6934 11.44C92.7601 12.72 93.2934 14.4533 93.2934 16.64V27.32C93.2934 28.1733 93.3068 28.9467 93.3334 29.64C93.3868 30.3333 93.4401 30.96 93.4934 31.52C93.5734 32.08 93.6401 32.5733 93.6934 33H88.7734C88.6934 32.4667 88.6001 31.8667 88.4934 31.2C88.3868 30.5067 88.3068 30 88.2534 29.68C87.9868 30.6133 87.4801 31.4667 86.7334 32.24C85.9868 32.9867 84.9734 33.36 83.6934 33.36ZM85.6934 29.32C86.0401 29.32 86.3601 29.24 86.6534 29.08C86.9468 28.8933 87.2134 28.68 87.4534 28.44C87.6934 28.2 87.8801 27.9867 88.0134 27.8V21.36C87.4001 21.7067 86.8268 22.0533 86.2934 22.4C85.7868 22.7467 85.3468 23.1333 84.9734 23.56C84.6001 23.96 84.3068 24.4 84.0934 24.88C83.8801 25.36 83.7734 25.92 83.7734 26.56C83.7734 27.4133 83.9334 28.0933 84.2534 28.6C84.6001 29.08 85.0801 29.32 85.6934 29.32ZM97.2363 33V9.88H102.676V12.2C103.503 11.4 104.37 10.76 105.276 10.28C106.21 9.77333 107.21 9.52 108.276 9.52C109.236 9.52 109.996 9.76 110.556 10.24C111.116 10.6933 111.53 11.3067 111.796 12.08C112.063 12.8533 112.196 13.6933 112.196 14.6V33H106.756V15.68C106.756 14.9867 106.65 14.4533 106.436 14.08C106.223 13.7067 105.81 13.52 105.196 13.52C104.823 13.52 104.41 13.6267 103.956 13.84C103.53 14.0533 103.103 14.32 102.676 14.64V33H97.2363ZM122.902 33.28C121.435 33.28 120.275 33.04 119.422 32.56C118.595 32.08 118.008 31.3867 117.662 30.48C117.315 29.5733 117.142 28.4933 117.142 27.24V13.48H114.822V9.88H117.142V2.96H122.622V9.88H126.142V13.48H122.622V26.76C122.622 27.56 122.795 28.1333 123.142 28.48C123.488 28.8 124.008 28.96 124.702 28.96C124.995 28.96 125.275 28.9467 125.542 28.92C125.835 28.8933 126.115 28.8667 126.382 28.84V33C125.928 33.0533 125.395 33.1067 124.782 33.16C124.195 33.24 123.568 33.28 122.902 33.28Z" fill="#282827"/>
</svg>
