<svg width="44" height="44" viewBox="0 0 44 44" fill="none" xmlns="http://www.w3.org/2000/svg">
<path d="M19.3315 8.95968C19.3937 9.02211 19.4429 9.09617 19.4765 9.17765C19.51 9.25913 19.5272 9.34643 19.527 9.43454C19.5268 9.52266 19.5092 9.60987 19.4752 9.69118C19.4413 9.7725 19.3917 9.84632 19.3292 9.90844L8.37833 20.8059L36.2611 20.874C36.439 20.8744 36.6093 20.9455 36.7348 21.0716C36.8602 21.1976 36.9304 21.3683 36.93 21.5462C36.9296 21.724 36.8585 21.8944 36.7324 22.0198C36.6064 22.1452 36.4357 22.2154 36.2578 22.215L8.37506 22.1469L19.2725 33.0977C19.3347 33.1602 19.3839 33.2343 19.4174 33.3157C19.4509 33.3972 19.4681 33.4845 19.4678 33.5726C19.4676 33.6607 19.4501 33.7479 19.4162 33.8292C19.3822 33.9105 19.3326 33.9843 19.2702 34.0465C19.2077 34.1086 19.1337 34.1579 19.0522 34.1914C18.9707 34.2249 18.8834 34.242 18.7953 34.2418C18.7072 34.2416 18.62 34.224 18.5387 34.1901C18.4574 34.1562 18.3836 34.1066 18.3214 34.0442L6.2819 21.9457C6.21971 21.8832 6.17043 21.8092 6.13689 21.7277C6.10335 21.6462 6.08619 21.5589 6.08641 21.4708C6.08662 21.3827 6.1042 21.2955 6.13815 21.2142C6.17209 21.1328 6.22172 21.059 6.28422 20.9969L18.3827 8.95736C18.4451 8.89517 18.5192 8.8459 18.6007 8.81236C18.6822 8.77881 18.7695 8.76166 18.8576 8.76187C18.9457 8.76209 19.0329 8.77967 19.1142 8.81361C19.1955 8.84755 19.2694 8.89719 19.3315 8.95968Z" fill="#282827"/>
</svg>
