<svg width="114" height="28" viewBox="0 0 114 28" fill="none" xmlns="http://www.w3.org/2000/svg">
<path d="M7.512 27.288C5.67733 27.288 4.248 26.904 3.224 26.136C2.22133 25.368 1.51733 24.3333 1.112 23.032C0.728 21.7307 0.536 20.28 0.536 18.68V9.528C0.536 7.77867 0.728 6.25333 1.112 4.952C1.51733 3.65067 2.22133 2.648 3.224 1.944C4.248 1.21867 5.67733 0.855999 7.512 0.855999C9.13333 0.855999 10.4133 1.15467 11.352 1.752C12.312 2.34933 12.9947 3.20267 13.4 4.312C13.8267 5.42133 14.04 6.75467 14.04 8.312V10.36H10.616V8.536C10.616 7.576 10.5627 6.73333 10.456 6.008C10.3707 5.26133 10.1147 4.68533 9.688 4.28C9.26133 3.87467 8.54667 3.672 7.544 3.672C6.52 3.672 5.77333 3.896 5.304 4.344C4.83467 4.77067 4.52533 5.38933 4.376 6.2C4.248 6.98933 4.184 7.91733 4.184 8.984V19.256C4.184 20.5573 4.29067 21.592 4.504 22.36C4.71733 23.1067 5.06933 23.64 5.56 23.96C6.05067 24.28 6.712 24.44 7.544 24.44C8.52533 24.44 9.22933 24.2267 9.656 23.8C10.0827 23.352 10.3493 22.744 10.456 21.976C10.5627 21.208 10.616 20.312 10.616 19.288V17.368H14.04V19.288C14.04 20.8667 13.848 22.264 13.464 23.48C13.08 24.6747 12.4187 25.6133 11.48 26.296C10.5413 26.9573 9.21867 27.288 7.512 27.288ZM22.2848 27.256C20.9194 27.256 19.8421 26.9787 19.0528 26.424C18.2634 25.8693 17.6981 25.08 17.3568 24.056C17.0368 23.032 16.8768 21.8267 16.8768 20.44V15.064C16.8768 13.6773 17.0368 12.472 17.3568 11.448C17.6981 10.424 18.2634 9.63467 19.0528 9.08C19.8421 8.52533 20.9194 8.248 22.2848 8.248C23.6501 8.248 24.7168 8.52533 25.4848 9.08C26.2741 9.63467 26.8288 10.424 27.1488 11.448C27.4901 12.472 27.6608 13.6773 27.6608 15.064V20.44C27.6608 21.8267 27.4901 23.032 27.1488 24.056C26.8288 25.08 26.2741 25.8693 25.4848 26.424C24.7168 26.9787 23.6501 27.256 22.2848 27.256ZM22.2848 24.728C22.9461 24.728 23.4048 24.536 23.6608 24.152C23.9381 23.768 24.0981 23.2667 24.1408 22.648C24.2048 22.008 24.2368 21.3467 24.2368 20.664V14.872C24.2368 14.168 24.2048 13.5067 24.1408 12.888C24.0981 12.2693 23.9381 11.768 23.6608 11.384C23.4048 10.9787 22.9461 10.776 22.2848 10.776C21.6234 10.776 21.1541 10.9787 20.8768 11.384C20.5994 11.768 20.4288 12.2693 20.3648 12.888C20.3221 13.5067 20.3008 14.168 20.3008 14.872V20.664C20.3008 21.3467 20.3221 22.008 20.3648 22.648C20.4288 23.2667 20.5994 23.768 20.8768 24.152C21.1541 24.536 21.6234 24.728 22.2848 24.728ZM31.1105 27V1.08H34.5345V27H31.1105ZM38.423 27V1.08H41.847V27H38.423ZM50.5355 27.256C49.0848 27.256 47.9648 26.9787 47.1755 26.424C46.3862 25.848 45.8315 25.016 45.5115 23.928C45.2128 22.8187 45.0635 21.464 45.0635 19.864V15.64C45.0635 13.9973 45.2235 12.632 45.5435 11.544C45.8635 10.456 46.4182 9.63467 47.2075 9.08C48.0182 8.52533 49.1275 8.248 50.5355 8.248C52.0928 8.248 53.2342 8.568 53.9595 9.208C54.7062 9.848 55.1968 10.776 55.4315 11.992C55.6662 13.1867 55.7835 14.6267 55.7835 16.312V17.816H48.4875V21.528C48.4875 22.2747 48.5515 22.8827 48.6795 23.352C48.8288 23.8213 49.0528 24.1733 49.3515 24.408C49.6715 24.6213 50.0768 24.728 50.5675 24.728C51.0795 24.728 51.4635 24.6107 51.7195 24.376C51.9968 24.12 52.1782 23.768 52.2635 23.32C52.3702 22.8507 52.4235 22.3067 52.4235 21.688V20.568H55.7515V21.272C55.7515 23.128 55.3568 24.5893 54.5675 25.656C53.7782 26.7227 52.4342 27.256 50.5355 27.256ZM48.4875 15.96H52.4235V14.296C52.4235 13.528 52.3808 12.888 52.2955 12.376C52.2102 11.8427 52.0288 11.448 51.7515 11.192C51.4955 10.9147 51.0795 10.776 50.5035 10.776C49.9488 10.776 49.5222 10.904 49.2235 11.16C48.9462 11.416 48.7542 11.8533 48.6475 12.472C48.5408 13.0693 48.4875 13.9013 48.4875 14.968V15.96ZM63.9403 27.256C62.4256 27.256 61.2736 26.9573 60.4843 26.36C59.7163 25.7413 59.1936 24.8773 58.9163 23.768C58.6603 22.6587 58.5323 21.368 58.5323 19.896V15.64C58.5323 14.0827 58.6709 12.76 58.9483 11.672C59.2256 10.5627 59.7483 9.72 60.5163 9.144C61.3056 8.54667 62.4469 8.248 63.9403 8.248C65.2843 8.248 66.3189 8.472 67.0443 8.92C67.7909 9.34667 68.3029 9.99733 68.5803 10.872C68.8576 11.7253 68.9963 12.792 68.9963 14.072V15.16H65.8923V14.04C65.8923 13.2293 65.8389 12.5893 65.7323 12.12C65.6256 11.6507 65.4336 11.3093 65.1562 11.096C64.8789 10.8827 64.4843 10.776 63.9723 10.776C63.4176 10.776 62.9909 10.904 62.6923 11.16C62.3936 11.416 62.1909 11.8533 62.0843 12.472C61.9989 13.0693 61.9563 13.8907 61.9563 14.936V20.76C61.9563 22.3387 62.1056 23.3947 62.4043 23.928C62.7029 24.4613 63.2363 24.728 64.0043 24.728C64.5803 24.728 64.9963 24.6 65.2523 24.344C65.5296 24.0667 65.7003 23.6827 65.7643 23.192C65.8496 22.7013 65.8923 22.1467 65.8923 21.528V20.024H68.9963V21.304C68.9963 22.5413 68.8469 23.608 68.5483 24.504C68.2709 25.4 67.7589 26.0827 67.0123 26.552C66.2869 27.0213 65.2629 27.256 63.9403 27.256ZM76.9685 27.256C76.0085 27.256 75.2298 27.0747 74.6325 26.712C74.0565 26.3493 73.6298 25.8373 73.3525 25.176C73.0965 24.5147 72.9685 23.736 72.9685 22.84V10.776H71.0165V8.504H72.9685V3.096H76.3925V8.504H79.3685V10.776H76.3925V22.616C76.3925 23.3413 76.5098 23.864 76.7445 24.184C76.9792 24.4827 77.4272 24.632 78.0885 24.632C78.2592 24.632 78.4512 24.6213 78.6645 24.6C78.8992 24.5787 79.1232 24.5573 79.3365 24.536V27.064C78.9098 27.128 78.5152 27.1707 78.1525 27.192C77.7898 27.2347 77.3952 27.256 76.9685 27.256ZM82.1083 27V8.504H85.5323V27H82.1083ZM82.1083 5.752V2.168H85.5323V5.752H82.1083ZM94.2848 27.256C92.9194 27.256 91.8421 26.9787 91.0528 26.424C90.2634 25.8693 89.6981 25.08 89.3568 24.056C89.0368 23.032 88.8768 21.8267 88.8768 20.44V15.064C88.8768 13.6773 89.0368 12.472 89.3568 11.448C89.6981 10.424 90.2634 9.63467 91.0528 9.08C91.8421 8.52533 92.9194 8.248 94.2848 8.248C95.6501 8.248 96.7168 8.52533 97.4848 9.08C98.2741 9.63467 98.8288 10.424 99.1488 11.448C99.4901 12.472 99.6608 13.6773 99.6608 15.064V20.44C99.6608 21.8267 99.4901 23.032 99.1488 24.056C98.8288 25.08 98.2741 25.8693 97.4848 26.424C96.7168 26.9787 95.6501 27.256 94.2848 27.256ZM94.2848 24.728C94.9461 24.728 95.4048 24.536 95.6608 24.152C95.9381 23.768 96.0981 23.2667 96.1408 22.648C96.2048 22.008 96.2368 21.3467 96.2368 20.664V14.872C96.2368 14.168 96.2048 13.5067 96.1408 12.888C96.0981 12.2693 95.9381 11.768 95.6608 11.384C95.4048 10.9787 94.9461 10.776 94.2848 10.776C93.6234 10.776 93.1541 10.9787 92.8768 11.384C92.5994 11.768 92.4288 12.2693 92.3648 12.888C92.3221 13.5067 92.3008 14.168 92.3008 14.872V20.664C92.3008 21.3467 92.3221 22.008 92.3648 22.648C92.4288 23.2667 92.5994 23.768 92.8768 24.152C93.1541 24.536 93.6234 24.728 94.2848 24.728ZM102.791 27V8.504H106.215V10.328C106.833 9.752 107.516 9.26133 108.263 8.856C109.009 8.45067 109.831 8.248 110.727 8.248C111.473 8.248 112.039 8.44 112.423 8.824C112.828 9.208 113.105 9.688 113.255 10.264C113.425 10.84 113.511 11.4267 113.511 12.024V27H110.087V13.016C110.087 12.3547 109.991 11.8427 109.799 11.48C109.606 11.1173 109.212 10.936 108.615 10.936C108.231 10.936 107.825 11.0533 107.399 11.288C106.993 11.5013 106.599 11.768 106.215 12.088V27H102.791Z" fill="#282827"/>
</svg>
