<svg width="61" height="61" viewBox="0 0 61 61" fill="none" xmlns="http://www.w3.org/2000/svg">
<rect width="61" height="61" rx="20" fill="#EF7015"/>
<path d="M37.25 34.1667C31.6875 34.1667 20.5833 36.9375 20.5833 42.5V46.6667H53.9167V42.5C53.9167 36.9375 42.8125 34.1667 37.25 34.1667ZM18.5 25.8333V19.5833H14.3333V25.8333H8.08334V30H14.3333V36.25H18.5V30H24.75V25.8333M37.25 30C39.4601 30 41.5798 29.122 43.1426 27.5592C44.7054 25.9964 45.5833 23.8768 45.5833 21.6667C45.5833 19.4565 44.7054 17.3369 43.1426 15.7741C41.5798 14.2113 39.4601 13.3333 37.25 13.3333C35.0399 13.3333 32.9203 14.2113 31.3575 15.7741C29.7947 17.3369 28.9167 19.4565 28.9167 21.6667C28.9167 23.8768 29.7947 25.9964 31.3575 27.5592C32.9203 29.122 35.0399 30 37.25 30Z" fill="#5A311B"/>
</svg>
