<svg width="25" height="25" viewBox="0 0 25 25" fill="none" xmlns="http://www.w3.org/2000/svg">
<rect x="0.360596" y="0.770493" width="23.8525" height="23.8525" stroke="black"/>
<path d="M19.84 21.6414L13.5787 15.3801C13.0818 15.7777 12.5103 16.0924 11.8643 16.3243C11.2183 16.5562 10.5309 16.6721 9.80208 16.6721C7.99658 16.6721 6.4687 16.0467 5.21843 14.7957C3.96817 13.5448 3.3427 12.0169 3.34204 10.2121C3.34204 8.40659 3.96751 6.87871 5.21843 5.62845C6.46936 4.37818 7.99725 3.75271 9.80208 3.75205C11.6076 3.75205 13.1358 4.37752 14.3867 5.62845C15.6377 6.87937 16.2628 8.40726 16.2621 10.2121C16.2621 10.9409 16.1462 11.6283 15.9143 12.2743C15.6824 12.9203 15.3677 13.4918 14.9701 13.9887L21.2314 20.25L19.84 21.6414ZM9.80208 14.6844C11.0444 14.6844 12.1005 14.2498 12.9705 13.3805C13.8404 12.5112 14.2751 11.4551 14.2744 10.2121C14.2744 8.96978 13.8398 7.91398 12.9705 7.04469C12.1012 6.1754 11.0451 5.74042 9.80208 5.73976C8.55977 5.73976 7.50396 6.17473 6.63467 7.04469C5.76538 7.91464 5.33041 8.97044 5.32975 10.2121C5.32975 11.4544 5.76472 12.5105 6.63467 13.3805C7.50463 14.2504 8.56043 14.6851 9.80208 14.6844Z" fill="black"/>
</svg>
