<svg width="359" height="51" viewBox="0 0 359 51" fill="none" xmlns="http://www.w3.org/2000/svg">
<g clip-path="url(#clip0_125_1361)">
<rect width="48" height="48" transform="translate(0 1)" fill="#E5DDC5"/>
<path fill-rule="evenodd" clip-rule="evenodd" d="M24 49C10.7445 49 0 38.2555 0 25C0 11.7445 10.7445 1 24 1C37.2555 1 48 11.7445 48 25C48 38.2555 37.2555 49 24 49ZM19.3035 20.0275V23.7595H35.931V20.0275H19.3035ZM35.931 26.2435H19.3035V29.9755H31.653V33.478C29.997 34.906 26.754 35.644 26.754 35.644C17.2335 37.303 14.199 29.149 14.199 29.149C11.439 19.7515 18.129 16.0195 18.129 16.0195C26.34 11.044 32.481 17.401 32.481 17.401L35.379 14.569C30.549 9.04 23.0985 10.0765 23.0985 10.0765C11.0235 11.3215 9.4365 21.478 9.4365 21.478C7.4355 29.632 12.9555 35.23 12.9555 35.23C23.0295 45.4555 36 36.058 36 36.058V26.245L35.931 26.2435Z" fill="black"/>
</g>
<mask id="mask0_125_1361" style="mask-type:luminance" maskUnits="userSpaceOnUse" x="51" y="6" width="42" height="36">
<path d="M67 30V33C67 34.8565 66.2625 36.637 64.9497 37.9497C63.637 39.2625 61.8565 40 60 40C58.1435 40 56.363 39.2625 55.0503 37.9497C53.7375 36.637 53 34.8565 53 33V19M77 30V33C77 34.8565 77.7375 36.637 79.0503 37.9497C80.363 39.2625 82.1435 40 84 40C85.8565 40 87.637 39.2625 88.9497 37.9497C90.2625 36.637 91 34.8565 91 33V19" stroke="white" stroke-width="4" stroke-linecap="round" stroke-linejoin="round"/>
<path d="M80 8H64C57.9249 8 53 12.9249 53 19C53 25.0751 57.9249 30 64 30H80C86.0751 30 91 25.0751 91 19C91 12.9249 86.0751 8 80 8Z" fill="#555555" stroke="white" stroke-width="4"/>
<path d="M69 19H61M65 15V23" stroke="white" stroke-width="4" stroke-linecap="round" stroke-linejoin="round"/>
<path d="M84 17C84 15.8954 83.1046 15 82 15C80.8954 15 80 15.8954 80 17C80 18.1046 80.8954 19 82 19C83.1046 19 84 18.1046 84 17Z" fill="white"/>
<path d="M80 22C80 20.8954 79.1046 20 78 20C76.8954 20 76 20.8954 76 22C76 23.1046 76.8954 24 78 24C79.1046 24 80 23.1046 80 22Z" fill="white"/>
</mask>
<g mask="url(#mask0_125_1361)">
<path d="M48 0H96V48H48V0Z" fill="black"/>
</g>
<g clip-path="url(#clip1_125_1361)">
<rect width="48" height="48" transform="translate(96 1)" fill="#E5DDC5"/>
<path d="M130 9C132.212 9 133.91 10.686 135.168 12.5L135.594 13.142L135.984 13.782C136.108 13.99 136.226 14.198 136.34 14.398C137.914 17.212 139.284 20.886 140.19 24.516C141.09 28.118 141.588 31.88 141.27 34.838C140.95 37.808 139.42 41 136 41C132.932 41 130.514 39.36 128.55 37.758L126.33 35.896C124.484 34.384 122.464 33 120 33C117.536 33 115.514 34.384 113.672 35.896L111.452 37.756C109.484 39.36 107.066 41 104 41C100.578 41 99.048 37.808 98.73 34.838C98.414 31.878 98.91 28.118 99.81 24.516C100.716 20.886 102.086 17.212 103.66 14.398L104.016 13.78L104.406 13.142L104.832 12.5C106.09 10.686 107.788 9 110 9C111.02 9 112.034 9.248 113.03 9.54L114.216 9.904C114.412 9.964 114.606 10.022 114.8 10.076C116.53 10.572 118.3 11 120 11C121.7 11 123.47 10.572 125.2 10.076L126.97 9.542C127.966 9.248 128.98 9 130 9ZM113 17C111.674 17 110.402 17.5268 109.464 18.4645C108.527 19.4021 108 20.6739 108 22C108 23.3261 108.527 24.5979 109.464 25.5355C110.402 26.4732 111.674 27 113 27C114.326 27 115.598 26.4732 116.536 25.5355C117.473 24.5979 118 23.3261 118 22C118 20.6739 117.473 19.4021 116.536 18.4645C115.598 17.5268 114.326 17 113 17ZM127 17C126.47 17 125.961 17.2107 125.586 17.5858C125.211 17.9609 125 18.4696 125 19V20H124C123.47 20 122.961 20.2107 122.586 20.5858C122.211 20.9609 122 21.4696 122 22C122 22.5304 122.211 23.0391 122.586 23.4142C122.961 23.7893 123.47 24 124 24H125V25C125 25.5304 125.211 26.0391 125.586 26.4142C125.961 26.7893 126.47 27 127 27C127.53 27 128.039 26.7893 128.414 26.4142C128.789 26.0391 129 25.5304 129 25V24H130C130.53 24 131.039 23.7893 131.414 23.4142C131.789 23.0391 132 22.5304 132 22C132 21.4696 131.789 20.9609 131.414 20.5858C131.039 20.2107 130.53 20 130 20H129V19C129 18.4696 128.789 17.9609 128.414 17.5858C128.039 17.2107 127.53 17 127 17ZM113 21C113.265 21 113.52 21.1054 113.707 21.2929C113.895 21.4804 114 21.7348 114 22C114 22.2652 113.895 22.5196 113.707 22.7071C113.52 22.8946 113.265 23 113 23C112.735 23 112.48 22.8946 112.293 22.7071C112.105 22.5196 112 22.2652 112 22C112 21.7348 112.105 21.4804 112.293 21.2929C112.48 21.1054 112.735 21 113 21Z" fill="black"/>
</g>
<g clip-path="url(#clip2_125_1361)">
<rect width="48" height="48" transform="translate(144 1)" fill="black"/>
<path fill-rule="evenodd" clip-rule="evenodd" d="M151.022 1C148.33 1 146.479 3.38971 146.479 5.89943V34.1749C146.479 35.9269 147.357 37.6377 148.917 38.5154L167.157 48.7806C167.413 48.9254 167.703 49.0014 167.998 49.0014C168.293 49.0014 168.583 48.9254 168.84 48.7806L187.08 38.5154C188.64 37.6411 189.521 35.9269 189.521 34.1749V5.90286C189.521 3.39314 187.67 1.00343 184.978 1.00343L151.022 1ZM161.088 10.2811C161.088 9.09829 162.048 8.13829 163.231 8.13829H172.779C173.348 8.13829 173.893 8.36405 174.295 8.76591C174.697 9.16778 174.922 9.71282 174.922 10.2811C174.922 10.8495 174.697 11.3945 174.295 11.7964C173.893 12.1982 173.348 12.424 172.779 12.424H165.374V16.0994H172.779C173.348 16.0994 173.893 16.3252 174.295 16.7271C174.697 17.1289 174.922 17.674 174.922 18.2423C174.922 18.8106 174.697 19.3556 174.295 19.7575C173.893 20.1594 173.348 20.3851 172.779 20.3851H165.374V24.0571H172.779C173.348 24.0571 173.893 24.2829 174.295 24.6848C174.697 25.0866 174.922 25.6317 174.922 26.2C174.922 26.7683 174.697 27.3134 174.295 27.7152C173.893 28.1171 173.348 28.3429 172.779 28.3429H163.234C162.666 28.3429 162.121 28.1171 161.719 27.7152C161.317 27.3134 161.091 26.7683 161.091 26.2L161.088 10.2811ZM162.672 34.2126C162.425 34.0764 162.155 33.9901 161.875 33.9586C161.595 33.9271 161.311 33.951 161.041 34.029C160.77 34.107 160.518 34.2375 160.297 34.4132C160.077 34.5888 159.894 34.8061 159.758 35.0526C159.622 35.2991 159.535 35.57 159.504 35.8499C159.472 36.1297 159.496 36.4131 159.574 36.6837C159.652 36.9543 159.783 37.2069 159.958 37.4271C160.134 37.6472 160.351 37.8307 160.598 37.9669L166.965 41.488C167.282 41.6636 167.639 41.7557 168.002 41.7557C168.365 41.7557 168.721 41.6636 169.039 41.488L175.406 37.9669C175.652 37.8307 175.869 37.6473 176.044 37.4272C176.22 37.2071 176.35 36.9546 176.428 36.6842C176.506 36.4137 176.53 36.1306 176.498 35.8509C176.467 35.5713 176.38 35.3006 176.244 35.0543C176.108 34.808 175.924 34.591 175.704 34.4155C175.484 34.2401 175.232 34.1098 174.961 34.0319C174.691 33.9541 174.408 33.9303 174.128 33.9619C173.848 33.9934 173.578 34.0798 173.331 34.216L168 37.1646L162.672 34.2126Z" fill="#E5DDC5"/>
</g>
<rect x="220" y="4" width="46" height="46" stroke="black" stroke-width="2"/>
<mask id="mask1_125_1361" style="mask-type:luminance" maskUnits="userSpaceOnUse" x="223" y="7" width="40" height="40">
<path d="M258 9H228C227.204 9 226.441 9.31607 225.879 9.87868C225.316 10.4413 225 11.2044 225 12V42C225 42.7957 225.316 43.5587 225.879 44.1213C226.441 44.6839 227.204 45 228 45H258C258.796 45 259.559 44.6839 260.121 44.1213C260.684 43.5587 261 42.7957 261 42V12C261 11.2044 260.684 10.4413 260.121 9.87868C259.559 9.31607 258.796 9 258 9Z" fill="white" stroke="white" stroke-width="4"/>
<path d="M247 16L240.5 27L238.875 29.75L238.063 31.125M234 38L234.813 36.625M231 32H242M249 32H255M238 16L241.5 21.5L242.375 22.875M252 38L248.5 32.5L246.75 29.75L245.875 28.375" stroke="black" stroke-width="4" stroke-linecap="round" stroke-linejoin="round"/>
</mask>
<g mask="url(#mask1_125_1361)">
<path d="M219 3H267V51H219V3Z" fill="black"/>
</g>
<path d="M305 7C306.591 7 308.117 7.63214 309.243 8.75736C310.368 9.88258 311 11.4087 311 13V41C311 42.5913 310.368 44.1174 309.243 45.2426C308.117 46.3679 306.591 47 305 47H277C275.409 47 273.883 46.3679 272.757 45.2426C271.632 44.1174 271 42.5913 271 41V13C271 11.4087 271.632 9.88258 272.757 8.75736C273.883 7.63214 275.409 7 277 7H305ZM291 17H287C286.47 17 285.961 17.2107 285.586 17.5858C285.211 17.9609 285 18.4696 285 19V35C285 35.5304 285.211 36.0391 285.586 36.4142C285.961 36.7893 286.47 37 287 37L287.234 36.986C287.721 36.9287 288.169 36.6948 288.495 36.3287C288.82 35.9627 289 35.4899 289 35V29H291C292.591 29 294.117 28.3679 295.243 27.2426C296.368 26.1174 297 24.5913 297 23C297 21.4087 296.368 19.8826 295.243 18.7574C294.117 17.6321 292.591 17 291 17ZM291 21C291.53 21 292.039 21.2107 292.414 21.5858C292.789 21.9609 293 22.4696 293 23C293 23.5304 292.789 24.0391 292.414 24.4142C292.039 24.7893 291.53 25 291 25H289V21H291Z" fill="black"/>
<path d="M349 7C350.591 7 352.117 7.63214 353.243 8.75736C354.368 9.88258 355 11.4087 355 13V41C355 42.5913 354.368 44.1174 353.243 45.2426C352.117 46.3679 350.591 47 349 47H321C319.409 47 317.883 46.3679 316.757 45.2426C315.632 44.1174 315 42.5913 315 41V13C315 11.4087 315.632 9.88258 316.757 8.75736C317.883 7.63214 319.409 7 321 7H349ZM335 17H331C330.47 17 329.961 17.2107 329.586 17.5858C329.211 17.9609 329 18.4696 329 19V35C329 35.5304 329.211 36.0391 329.586 36.4142C329.961 36.7893 330.47 37 331 37L331.234 36.986C331.721 36.9287 332.169 36.6948 332.495 36.3287C332.82 35.9627 333 35.4899 333 35V29H335C336.591 29 338.117 28.3679 339.243 27.2426C340.368 26.1174 341 24.5913 341 23C341 21.4087 340.368 19.8826 339.243 18.7574C338.117 17.6321 336.591 17 335 17ZM335 21C335.53 21 336.039 21.2107 336.414 21.5858C336.789 21.9609 337 22.4696 337 23C337 23.5304 336.789 24.0391 336.414 24.4142C336.039 24.7893 335.53 25 335 25H333V21H335Z" fill="black"/>
<defs>
<clipPath id="clip0_125_1361">
<rect width="48" height="48" fill="white" transform="translate(0 1)"/>
</clipPath>
<clipPath id="clip1_125_1361">
<rect width="48" height="48" fill="white" transform="translate(96 1)"/>
</clipPath>
<clipPath id="clip2_125_1361">
<rect width="48" height="48" fill="white" transform="translate(144 1)"/>
</clipPath>
</defs>
</svg>
